<mxfile host="Electron" agent="Mozilla/5.0 (Windows NT 10.0; Win64; x64) AppleWebKit/537.36 (KHTML, like Gecko) draw.io/26.2.15 Chrome/134.0.6998.205 Electron/35.2.1 Safari/537.36" version="26.2.15" pages="6">
  <diagram name="Солдаты" id="rJ8hqowtLaTWxUPbsmZt">
    <mxGraphModel dx="1042" dy="643" grid="1" gridSize="10" guides="1" tooltips="1" connect="1" arrows="1" fold="1" page="1" pageScale="1" pageWidth="1169" pageHeight="827" math="0" shadow="0">
      <root>
        <mxCell id="ZdsDItJGIs3to1-_yV_p-0" />
        <mxCell id="ZdsDItJGIs3to1-_yV_p-1" parent="ZdsDItJGIs3to1-_yV_p-0" />
        <mxCell id="ZdsDItJGIs3to1-_yV_p-2" value="" style="group" vertex="1" connectable="0" parent="ZdsDItJGIs3to1-_yV_p-1">
          <mxGeometry x="200" y="240" width="120" height="120" as="geometry" />
        </mxCell>
        <mxCell id="ZdsDItJGIs3to1-_yV_p-3" value="&lt;font size=&quot;3&quot;&gt;Демьянская&lt;/font&gt;&lt;div&gt;&lt;font size=&quot;3&quot;&gt;Зоя&lt;/font&gt;&lt;/div&gt;" style="ellipse;whiteSpace=wrap;html=1;" vertex="1" parent="ZdsDItJGIs3to1-_yV_p-2">
          <mxGeometry width="120" height="120" as="geometry" />
        </mxCell>
        <mxCell id="ZdsDItJGIs3to1-_yV_p-4" value="&lt;font size=&quot;3&quot;&gt;7&lt;/font&gt;" style="ellipse;whiteSpace=wrap;html=1;aspect=fixed;" vertex="1" parent="ZdsDItJGIs3to1-_yV_p-2">
          <mxGeometry x="40" width="40" height="40" as="geometry" />
        </mxCell>
        <mxCell id="ZdsDItJGIs3to1-_yV_p-5" value="" style="group" vertex="1" connectable="0" parent="ZdsDItJGIs3to1-_yV_p-1">
          <mxGeometry x="680" y="40" width="120" height="120" as="geometry" />
        </mxCell>
        <mxCell id="ZdsDItJGIs3to1-_yV_p-6" value="&lt;font size=&quot;3&quot;&gt;Зайцев&lt;/font&gt;&lt;div&gt;&lt;font size=&quot;3&quot;&gt;Василий&lt;/font&gt;&lt;/div&gt;" style="ellipse;whiteSpace=wrap;html=1;" vertex="1" parent="ZdsDItJGIs3to1-_yV_p-5">
          <mxGeometry width="120" height="120" as="geometry" />
        </mxCell>
        <mxCell id="ZdsDItJGIs3to1-_yV_p-7" value="&lt;font size=&quot;3&quot;&gt;5&lt;/font&gt;" style="ellipse;whiteSpace=wrap;html=1;aspect=fixed;" vertex="1" parent="ZdsDItJGIs3to1-_yV_p-5">
          <mxGeometry x="40" width="40" height="40" as="geometry" />
        </mxCell>
        <mxCell id="ZdsDItJGIs3to1-_yV_p-8" value="" style="group" vertex="1" connectable="0" parent="ZdsDItJGIs3to1-_yV_p-1">
          <mxGeometry x="520" y="240" width="120" height="120" as="geometry" />
        </mxCell>
        <mxCell id="ZdsDItJGIs3to1-_yV_p-9" value="&lt;font size=&quot;3&quot;&gt;Карбышев&lt;/font&gt;&lt;div&gt;&lt;font size=&quot;3&quot;&gt;Дмитрий&lt;/font&gt;&lt;/div&gt;" style="ellipse;whiteSpace=wrap;html=1;" vertex="1" parent="ZdsDItJGIs3to1-_yV_p-8">
          <mxGeometry width="120" height="120" as="geometry" />
        </mxCell>
        <mxCell id="ZdsDItJGIs3to1-_yV_p-10" value="&lt;font size=&quot;3&quot;&gt;9&lt;/font&gt;" style="ellipse;whiteSpace=wrap;html=1;aspect=fixed;" vertex="1" parent="ZdsDItJGIs3to1-_yV_p-8">
          <mxGeometry x="40" width="40" height="40" as="geometry" />
        </mxCell>
        <mxCell id="ZdsDItJGIs3to1-_yV_p-11" value="" style="group" vertex="1" connectable="0" parent="ZdsDItJGIs3to1-_yV_p-1">
          <mxGeometry x="40" y="240" width="120" height="120" as="geometry" />
        </mxCell>
        <mxCell id="ZdsDItJGIs3to1-_yV_p-12" value="&lt;font size=&quot;3&quot;&gt;Кожедуб&lt;/font&gt;&lt;div&gt;&lt;font size=&quot;3&quot;&gt;Иван&lt;/font&gt;&lt;/div&gt;" style="ellipse;whiteSpace=wrap;html=1;" vertex="1" parent="ZdsDItJGIs3to1-_yV_p-11">
          <mxGeometry width="120" height="120" as="geometry" />
        </mxCell>
        <mxCell id="ZdsDItJGIs3to1-_yV_p-13" value="&lt;font size=&quot;3&quot;&gt;6&lt;/font&gt;" style="ellipse;whiteSpace=wrap;html=1;aspect=fixed;" vertex="1" parent="ZdsDItJGIs3to1-_yV_p-11">
          <mxGeometry x="40" width="40" height="40" as="geometry" />
        </mxCell>
        <mxCell id="ZdsDItJGIs3to1-_yV_p-14" value="" style="group" vertex="1" connectable="0" parent="ZdsDItJGIs3to1-_yV_p-1">
          <mxGeometry x="360" y="240" width="120" height="120" as="geometry" />
        </mxCell>
        <mxCell id="ZdsDItJGIs3to1-_yV_p-15" value="&lt;font size=&quot;3&quot;&gt;Гастелло&lt;/font&gt;&lt;div&gt;&lt;font size=&quot;3&quot;&gt;Николай&lt;/font&gt;&lt;/div&gt;" style="ellipse;whiteSpace=wrap;html=1;" vertex="1" parent="ZdsDItJGIs3to1-_yV_p-14">
          <mxGeometry width="120" height="120" as="geometry" />
        </mxCell>
        <mxCell id="ZdsDItJGIs3to1-_yV_p-16" value="&lt;font size=&quot;3&quot;&gt;8&lt;/font&gt;" style="ellipse;whiteSpace=wrap;html=1;aspect=fixed;" vertex="1" parent="ZdsDItJGIs3to1-_yV_p-14">
          <mxGeometry x="40" width="40" height="40" as="geometry" />
        </mxCell>
        <mxCell id="ZdsDItJGIs3to1-_yV_p-17" value="" style="group" vertex="1" connectable="0" parent="ZdsDItJGIs3to1-_yV_p-1">
          <mxGeometry x="360" y="40" width="120" height="120" as="geometry" />
        </mxCell>
        <mxCell id="ZdsDItJGIs3to1-_yV_p-18" value="&lt;font size=&quot;3&quot;&gt;Ватутин Николай&lt;/font&gt;" style="ellipse;whiteSpace=wrap;html=1;" vertex="1" parent="ZdsDItJGIs3to1-_yV_p-17">
          <mxGeometry width="120" height="120" as="geometry" />
        </mxCell>
        <mxCell id="ZdsDItJGIs3to1-_yV_p-19" value="&lt;font size=&quot;3&quot;&gt;3&lt;/font&gt;" style="ellipse;whiteSpace=wrap;html=1;aspect=fixed;" vertex="1" parent="ZdsDItJGIs3to1-_yV_p-17">
          <mxGeometry x="40" width="40" height="40" as="geometry" />
        </mxCell>
        <mxCell id="ZdsDItJGIs3to1-_yV_p-20" value="" style="group" vertex="1" connectable="0" parent="ZdsDItJGIs3to1-_yV_p-1">
          <mxGeometry x="680" y="240" width="120" height="120" as="geometry" />
        </mxCell>
        <mxCell id="ZdsDItJGIs3to1-_yV_p-21" value="&lt;font size=&quot;3&quot;&gt;Павлов&lt;/font&gt;&lt;div&gt;&lt;font size=&quot;3&quot;&gt;Яков&lt;/font&gt;&lt;/div&gt;" style="ellipse;whiteSpace=wrap;html=1;" vertex="1" parent="ZdsDItJGIs3to1-_yV_p-20">
          <mxGeometry width="120" height="120" as="geometry" />
        </mxCell>
        <mxCell id="ZdsDItJGIs3to1-_yV_p-22" value="&lt;font size=&quot;3&quot;&gt;10&lt;/font&gt;" style="ellipse;whiteSpace=wrap;html=1;aspect=fixed;" vertex="1" parent="ZdsDItJGIs3to1-_yV_p-20">
          <mxGeometry x="40" width="40" height="40" as="geometry" />
        </mxCell>
        <mxCell id="ZdsDItJGIs3to1-_yV_p-23" value="" style="group" vertex="1" connectable="0" parent="ZdsDItJGIs3to1-_yV_p-1">
          <mxGeometry x="520" y="40" width="120" height="120" as="geometry" />
        </mxCell>
        <mxCell id="ZdsDItJGIs3to1-_yV_p-24" value="&lt;font size=&quot;3&quot;&gt;Чуйков&lt;/font&gt;&lt;div&gt;&lt;font size=&quot;3&quot;&gt;Василий&lt;/font&gt;&lt;/div&gt;" style="ellipse;whiteSpace=wrap;html=1;" vertex="1" parent="ZdsDItJGIs3to1-_yV_p-23">
          <mxGeometry width="120" height="120" as="geometry" />
        </mxCell>
        <mxCell id="ZdsDItJGIs3to1-_yV_p-25" value="&lt;font size=&quot;3&quot;&gt;4&lt;/font&gt;" style="ellipse;whiteSpace=wrap;html=1;aspect=fixed;" vertex="1" parent="ZdsDItJGIs3to1-_yV_p-23">
          <mxGeometry x="40" width="40" height="40" as="geometry" />
        </mxCell>
        <mxCell id="ZdsDItJGIs3to1-_yV_p-26" value="" style="group" vertex="1" connectable="0" parent="ZdsDItJGIs3to1-_yV_p-1">
          <mxGeometry x="40" y="40" width="120" height="120" as="geometry" />
        </mxCell>
        <mxCell id="ZdsDItJGIs3to1-_yV_p-27" value="&lt;font style=&quot;font-size: 14px;&quot;&gt;Жуков&amp;nbsp;&lt;/font&gt;&lt;div&gt;&lt;font style=&quot;font-size: 14px;&quot;&gt;Георгий&lt;/font&gt;&lt;/div&gt;" style="ellipse;whiteSpace=wrap;html=1;" vertex="1" parent="ZdsDItJGIs3to1-_yV_p-26">
          <mxGeometry width="120" height="120" as="geometry" />
        </mxCell>
        <mxCell id="ZdsDItJGIs3to1-_yV_p-28" value="&lt;font size=&quot;3&quot;&gt;1&lt;/font&gt;" style="ellipse;whiteSpace=wrap;html=1;aspect=fixed;" vertex="1" parent="ZdsDItJGIs3to1-_yV_p-26">
          <mxGeometry x="40" width="40" height="40" as="geometry" />
        </mxCell>
        <mxCell id="ZdsDItJGIs3to1-_yV_p-29" value="" style="group" vertex="1" connectable="0" parent="ZdsDItJGIs3to1-_yV_p-1">
          <mxGeometry x="200" y="40" width="120" height="120" as="geometry" />
        </mxCell>
        <mxCell id="ZdsDItJGIs3to1-_yV_p-30" value="&lt;font style=&quot;font-size: 14px;&quot;&gt;Рокоссовский Константин&lt;/font&gt;" style="ellipse;whiteSpace=wrap;html=1;" vertex="1" parent="ZdsDItJGIs3to1-_yV_p-29">
          <mxGeometry width="120" height="120" as="geometry" />
        </mxCell>
        <mxCell id="ZdsDItJGIs3to1-_yV_p-31" value="&lt;font size=&quot;3&quot;&gt;2&lt;/font&gt;" style="ellipse;whiteSpace=wrap;html=1;aspect=fixed;" vertex="1" parent="ZdsDItJGIs3to1-_yV_p-29">
          <mxGeometry x="40" width="40" height="40" as="geometry" />
        </mxCell>
      </root>
    </mxGraphModel>
  </diagram>
  <diagram name="Операции" id="-1M9tPsBC49cYN_OeVSN">
    <mxGraphModel dx="1226" dy="756" grid="1" gridSize="10" guides="1" tooltips="1" connect="1" arrows="1" fold="1" page="1" pageScale="1" pageWidth="1169" pageHeight="827" math="0" shadow="0">
      <root>
        <mxCell id="COVuNpyJTxG4wiBgcIbx-0" />
        <mxCell id="COVuNpyJTxG4wiBgcIbx-1" parent="COVuNpyJTxG4wiBgcIbx-0" />
        <mxCell id="COVuNpyJTxG4wiBgcIbx-42" value="" style="group" vertex="1" connectable="0" parent="COVuNpyJTxG4wiBgcIbx-1">
          <mxGeometry x="200" y="200" width="160" height="130" as="geometry" />
        </mxCell>
        <mxCell id="COVuNpyJTxG4wiBgcIbx-43" value="&lt;font style=&quot;font-size: 16px;&quot;&gt;Прорыв&amp;nbsp;&lt;/font&gt;&lt;div&gt;&lt;font style=&quot;font-size: 16px;&quot;&gt;блокады&amp;nbsp;&lt;/font&gt;&lt;/div&gt;&lt;div&gt;&lt;font style=&quot;font-size: 16px;&quot;&gt;Ленинграда&lt;/font&gt;&lt;/div&gt;" style="ellipse;shape=cloud;whiteSpace=wrap;html=1;" vertex="1" parent="COVuNpyJTxG4wiBgcIbx-42">
          <mxGeometry y="10" width="160" height="120" as="geometry" />
        </mxCell>
        <mxCell id="COVuNpyJTxG4wiBgcIbx-44" value="&lt;font size=&quot;3&quot;&gt;7&lt;/font&gt;" style="ellipse;shape=cloud;whiteSpace=wrap;html=1;" vertex="1" parent="COVuNpyJTxG4wiBgcIbx-42">
          <mxGeometry x="50" width="60" height="50" as="geometry" />
        </mxCell>
        <mxCell id="COVuNpyJTxG4wiBgcIbx-45" value="" style="group" vertex="1" connectable="0" parent="COVuNpyJTxG4wiBgcIbx-1">
          <mxGeometry x="680" y="40" width="160" height="130" as="geometry" />
        </mxCell>
        <mxCell id="COVuNpyJTxG4wiBgcIbx-46" value="&lt;font style=&quot;font-size: 16px;&quot;&gt;Берлинская операция&lt;/font&gt;" style="ellipse;shape=cloud;whiteSpace=wrap;html=1;" vertex="1" parent="COVuNpyJTxG4wiBgcIbx-45">
          <mxGeometry y="10" width="160" height="120" as="geometry" />
        </mxCell>
        <mxCell id="COVuNpyJTxG4wiBgcIbx-47" value="&lt;font size=&quot;3&quot;&gt;5&lt;/font&gt;" style="ellipse;shape=cloud;whiteSpace=wrap;html=1;" vertex="1" parent="COVuNpyJTxG4wiBgcIbx-45">
          <mxGeometry x="50" width="60" height="50" as="geometry" />
        </mxCell>
        <mxCell id="COVuNpyJTxG4wiBgcIbx-48" value="" style="group" vertex="1" connectable="0" parent="COVuNpyJTxG4wiBgcIbx-1">
          <mxGeometry x="360" y="200" width="160" height="130" as="geometry" />
        </mxCell>
        <mxCell id="COVuNpyJTxG4wiBgcIbx-49" value="&lt;font style=&quot;font-size: 16px;&quot;&gt;Смоленское сражение&lt;/font&gt;" style="ellipse;shape=cloud;whiteSpace=wrap;html=1;" vertex="1" parent="COVuNpyJTxG4wiBgcIbx-48">
          <mxGeometry y="10" width="160" height="120" as="geometry" />
        </mxCell>
        <mxCell id="COVuNpyJTxG4wiBgcIbx-50" value="&lt;font size=&quot;3&quot;&gt;8&lt;/font&gt;" style="ellipse;shape=cloud;whiteSpace=wrap;html=1;" vertex="1" parent="COVuNpyJTxG4wiBgcIbx-48">
          <mxGeometry x="50" width="60" height="50" as="geometry" />
        </mxCell>
        <mxCell id="COVuNpyJTxG4wiBgcIbx-51" value="" style="group" vertex="1" connectable="0" parent="COVuNpyJTxG4wiBgcIbx-1">
          <mxGeometry x="40" y="200" width="160" height="130" as="geometry" />
        </mxCell>
        <mxCell id="COVuNpyJTxG4wiBgcIbx-52" value="&lt;font style=&quot;font-size: 16px;&quot;&gt;Оборона&amp;nbsp;&lt;/font&gt;&lt;div&gt;&lt;font style=&quot;font-size: 16px;&quot;&gt;Бреста&lt;/font&gt;&lt;/div&gt;" style="ellipse;shape=cloud;whiteSpace=wrap;html=1;" vertex="1" parent="COVuNpyJTxG4wiBgcIbx-51">
          <mxGeometry y="10" width="160" height="120" as="geometry" />
        </mxCell>
        <mxCell id="COVuNpyJTxG4wiBgcIbx-53" value="&lt;font size=&quot;3&quot;&gt;6&lt;/font&gt;" style="ellipse;shape=cloud;whiteSpace=wrap;html=1;" vertex="1" parent="COVuNpyJTxG4wiBgcIbx-51">
          <mxGeometry x="50" width="60" height="50" as="geometry" />
        </mxCell>
        <mxCell id="COVuNpyJTxG4wiBgcIbx-54" value="" style="group" vertex="1" connectable="0" parent="COVuNpyJTxG4wiBgcIbx-1">
          <mxGeometry x="680" y="200" width="160" height="130" as="geometry" />
        </mxCell>
        <mxCell id="COVuNpyJTxG4wiBgcIbx-55" value="&lt;font style=&quot;font-size: 16px;&quot;&gt;Висло-Одерская операция&lt;/font&gt;" style="ellipse;shape=cloud;whiteSpace=wrap;html=1;" vertex="1" parent="COVuNpyJTxG4wiBgcIbx-54">
          <mxGeometry y="10" width="160" height="120" as="geometry" />
        </mxCell>
        <mxCell id="COVuNpyJTxG4wiBgcIbx-56" value="&lt;font size=&quot;3&quot;&gt;10&lt;/font&gt;" style="ellipse;shape=cloud;whiteSpace=wrap;html=1;" vertex="1" parent="COVuNpyJTxG4wiBgcIbx-54">
          <mxGeometry x="50" width="60" height="50" as="geometry" />
        </mxCell>
        <mxCell id="COVuNpyJTxG4wiBgcIbx-57" value="" style="group" vertex="1" connectable="0" parent="COVuNpyJTxG4wiBgcIbx-1">
          <mxGeometry x="520" y="200" width="160" height="130" as="geometry" />
        </mxCell>
        <mxCell id="COVuNpyJTxG4wiBgcIbx-58" value="&lt;font style=&quot;font-size: 16px;&quot;&gt;Харьковская операция&lt;/font&gt;" style="ellipse;shape=cloud;whiteSpace=wrap;html=1;" vertex="1" parent="COVuNpyJTxG4wiBgcIbx-57">
          <mxGeometry y="10" width="160" height="120" as="geometry" />
        </mxCell>
        <mxCell id="COVuNpyJTxG4wiBgcIbx-59" value="&lt;font size=&quot;3&quot;&gt;9&lt;/font&gt;" style="ellipse;shape=cloud;whiteSpace=wrap;html=1;" vertex="1" parent="COVuNpyJTxG4wiBgcIbx-57">
          <mxGeometry x="50" width="60" height="50" as="geometry" />
        </mxCell>
        <mxCell id="COVuNpyJTxG4wiBgcIbx-60" value="" style="group" vertex="1" connectable="0" parent="COVuNpyJTxG4wiBgcIbx-1">
          <mxGeometry x="360" y="40" width="160" height="130" as="geometry" />
        </mxCell>
        <mxCell id="COVuNpyJTxG4wiBgcIbx-61" value="&lt;font style=&quot;font-size: 16px;&quot;&gt;Курская&amp;nbsp;&lt;/font&gt;&lt;div&gt;&lt;font style=&quot;font-size: 16px;&quot;&gt;битва&lt;/font&gt;&lt;/div&gt;" style="ellipse;shape=cloud;whiteSpace=wrap;html=1;align=center;" vertex="1" parent="COVuNpyJTxG4wiBgcIbx-60">
          <mxGeometry y="10" width="160" height="120" as="geometry" />
        </mxCell>
        <mxCell id="COVuNpyJTxG4wiBgcIbx-62" value="&lt;font size=&quot;3&quot;&gt;3&lt;/font&gt;" style="ellipse;shape=cloud;whiteSpace=wrap;html=1;" vertex="1" parent="COVuNpyJTxG4wiBgcIbx-60">
          <mxGeometry x="50" width="60" height="50" as="geometry" />
        </mxCell>
        <mxCell id="COVuNpyJTxG4wiBgcIbx-63" value="" style="group" vertex="1" connectable="0" parent="COVuNpyJTxG4wiBgcIbx-1">
          <mxGeometry x="40" y="40" width="160" height="130" as="geometry" />
        </mxCell>
        <mxCell id="COVuNpyJTxG4wiBgcIbx-64" value="&lt;font style=&quot;font-size: 16px;&quot;&gt;Оборона&amp;nbsp;&lt;/font&gt;&lt;div&gt;&lt;font style=&quot;font-size: 16px;&quot;&gt;Москвы&lt;/font&gt;&lt;/div&gt;" style="ellipse;shape=cloud;whiteSpace=wrap;html=1;" vertex="1" parent="COVuNpyJTxG4wiBgcIbx-63">
          <mxGeometry y="10" width="160" height="120" as="geometry" />
        </mxCell>
        <mxCell id="COVuNpyJTxG4wiBgcIbx-65" value="&lt;font size=&quot;3&quot;&gt;1&lt;/font&gt;" style="ellipse;shape=cloud;whiteSpace=wrap;html=1;" vertex="1" parent="COVuNpyJTxG4wiBgcIbx-63">
          <mxGeometry x="50" width="60" height="50" as="geometry" />
        </mxCell>
        <mxCell id="COVuNpyJTxG4wiBgcIbx-66" value="" style="group" vertex="1" connectable="0" parent="COVuNpyJTxG4wiBgcIbx-1">
          <mxGeometry x="520" y="40" width="160" height="130" as="geometry" />
        </mxCell>
        <mxCell id="COVuNpyJTxG4wiBgcIbx-67" value="&lt;font style=&quot;font-size: 16px;&quot;&gt;Операция&amp;nbsp;&lt;/font&gt;&lt;div&gt;&lt;font style=&quot;font-size: 16px;&quot;&gt;Багратион&lt;/font&gt;&lt;/div&gt;" style="ellipse;shape=cloud;whiteSpace=wrap;html=1;" vertex="1" parent="COVuNpyJTxG4wiBgcIbx-66">
          <mxGeometry y="10" width="160" height="120" as="geometry" />
        </mxCell>
        <mxCell id="COVuNpyJTxG4wiBgcIbx-68" value="&lt;font size=&quot;3&quot;&gt;4&lt;/font&gt;" style="ellipse;shape=cloud;whiteSpace=wrap;html=1;" vertex="1" parent="COVuNpyJTxG4wiBgcIbx-66">
          <mxGeometry x="50" width="60" height="50" as="geometry" />
        </mxCell>
        <mxCell id="COVuNpyJTxG4wiBgcIbx-69" value="" style="group" vertex="1" connectable="0" parent="COVuNpyJTxG4wiBgcIbx-1">
          <mxGeometry x="200" y="40" width="160" height="130" as="geometry" />
        </mxCell>
        <mxCell id="COVuNpyJTxG4wiBgcIbx-70" value="&lt;font style=&quot;font-size: 16px;&quot;&gt;Сталинградская битва&lt;/font&gt;" style="ellipse;shape=cloud;whiteSpace=wrap;html=1;" vertex="1" parent="COVuNpyJTxG4wiBgcIbx-69">
          <mxGeometry y="10" width="160" height="120" as="geometry" />
        </mxCell>
        <mxCell id="COVuNpyJTxG4wiBgcIbx-71" value="&lt;font size=&quot;3&quot;&gt;2&lt;/font&gt;" style="ellipse;shape=cloud;whiteSpace=wrap;html=1;" vertex="1" parent="COVuNpyJTxG4wiBgcIbx-69">
          <mxGeometry x="50" width="60" height="50" as="geometry" />
        </mxCell>
      </root>
    </mxGraphModel>
  </diagram>
  <diagram id="WJogPSUqBKnL0LTIXo_o" name="ВоинскиеЧасти">
    <mxGraphModel dx="1303" dy="804" grid="1" gridSize="10" guides="1" tooltips="1" connect="1" arrows="1" fold="1" page="1" pageScale="1" pageWidth="1169" pageHeight="827" math="0" shadow="0">
      <root>
        <mxCell id="0" />
        <mxCell id="1" parent="0" />
        <mxCell id="01-RSxm6MQncLrWWWw53-3" value="" style="group" vertex="1" connectable="0" parent="1">
          <mxGeometry width="160" height="100" as="geometry" />
        </mxCell>
        <mxCell id="01-RSxm6MQncLrWWWw53-1" value="&lt;font style=&quot;font-size: 18px;&quot;&gt;150-я стрелковая дивизия&lt;/font&gt;" style="rounded=0;whiteSpace=wrap;html=1;" vertex="1" parent="01-RSxm6MQncLrWWWw53-3">
          <mxGeometry width="160" height="100" as="geometry" />
        </mxCell>
        <mxCell id="01-RSxm6MQncLrWWWw53-2" value="&lt;font size=&quot;3&quot;&gt;1&lt;/font&gt;" style="rounded=0;whiteSpace=wrap;html=1;" vertex="1" parent="01-RSxm6MQncLrWWWw53-3">
          <mxGeometry x="60" width="40" height="30" as="geometry" />
        </mxCell>
        <mxCell id="01-RSxm6MQncLrWWWw53-4" value="" style="group" vertex="1" connectable="0" parent="1">
          <mxGeometry x="200" width="160" height="100" as="geometry" />
        </mxCell>
        <mxCell id="01-RSxm6MQncLrWWWw53-5" value="&lt;font style=&quot;font-size: 18px;&quot;&gt;6-я гвардейская армия&lt;/font&gt;" style="rounded=0;whiteSpace=wrap;html=1;" vertex="1" parent="01-RSxm6MQncLrWWWw53-4">
          <mxGeometry width="160" height="100" as="geometry" />
        </mxCell>
        <mxCell id="01-RSxm6MQncLrWWWw53-6" value="&lt;font size=&quot;3&quot;&gt;2&lt;/font&gt;" style="rounded=0;whiteSpace=wrap;html=1;" vertex="1" parent="01-RSxm6MQncLrWWWw53-4">
          <mxGeometry x="60" width="40" height="30" as="geometry" />
        </mxCell>
        <mxCell id="01-RSxm6MQncLrWWWw53-7" value="" style="group" vertex="1" connectable="0" parent="1">
          <mxGeometry x="200" y="120" width="160" height="100" as="geometry" />
        </mxCell>
        <mxCell id="01-RSxm6MQncLrWWWw53-8" value="&lt;font style=&quot;font-size: 18px;&quot;&gt;8-я гвардейская армия&lt;/font&gt;" style="rounded=0;whiteSpace=wrap;html=1;" vertex="1" parent="01-RSxm6MQncLrWWWw53-7">
          <mxGeometry width="160" height="100" as="geometry" />
        </mxCell>
        <mxCell id="01-RSxm6MQncLrWWWw53-9" value="&lt;font size=&quot;3&quot;&gt;7&lt;/font&gt;" style="rounded=0;whiteSpace=wrap;html=1;" vertex="1" parent="01-RSxm6MQncLrWWWw53-7">
          <mxGeometry x="60" width="40" height="30" as="geometry" />
        </mxCell>
        <mxCell id="01-RSxm6MQncLrWWWw53-10" value="" style="group;spacingTop=0;spacing=2;" vertex="1" connectable="0" parent="1">
          <mxGeometry y="120" width="160" height="100" as="geometry" />
        </mxCell>
        <mxCell id="01-RSxm6MQncLrWWWw53-11" value="&lt;font style=&quot;font-size: 18px;&quot;&gt;3-й гвардейский корпус&lt;/font&gt;" style="rounded=0;whiteSpace=wrap;html=1;" vertex="1" parent="01-RSxm6MQncLrWWWw53-10">
          <mxGeometry width="160" height="100" as="geometry" />
        </mxCell>
        <mxCell id="01-RSxm6MQncLrWWWw53-12" value="&lt;font size=&quot;3&quot;&gt;6&lt;/font&gt;" style="rounded=0;whiteSpace=wrap;html=1;" vertex="1" parent="01-RSxm6MQncLrWWWw53-10">
          <mxGeometry x="60" width="40" height="30" as="geometry" />
        </mxCell>
        <mxCell id="01-RSxm6MQncLrWWWw53-13" value="" style="group" vertex="1" connectable="0" parent="1">
          <mxGeometry x="400" width="160" height="100" as="geometry" />
        </mxCell>
        <mxCell id="01-RSxm6MQncLrWWWw53-14" value="&lt;font style=&quot;font-size: 18px;&quot;&gt;316-я стрелковая дивизия&lt;/font&gt;" style="rounded=0;whiteSpace=wrap;html=1;" vertex="1" parent="01-RSxm6MQncLrWWWw53-13">
          <mxGeometry width="160" height="100" as="geometry" />
        </mxCell>
        <mxCell id="01-RSxm6MQncLrWWWw53-15" value="&lt;font size=&quot;3&quot;&gt;3&lt;/font&gt;" style="rounded=0;whiteSpace=wrap;html=1;" vertex="1" parent="01-RSxm6MQncLrWWWw53-13">
          <mxGeometry x="60" width="40" height="30" as="geometry" />
        </mxCell>
        <mxCell id="01-RSxm6MQncLrWWWw53-16" value="" style="group" vertex="1" connectable="0" parent="1">
          <mxGeometry x="600" y="120" width="160" height="100" as="geometry" />
        </mxCell>
        <mxCell id="01-RSxm6MQncLrWWWw53-17" value="&lt;font style=&quot;font-size: 18px;&quot;&gt;5-я гвардейская армия&lt;/font&gt;" style="rounded=0;whiteSpace=wrap;html=1;" vertex="1" parent="01-RSxm6MQncLrWWWw53-16">
          <mxGeometry width="160" height="100" as="geometry" />
        </mxCell>
        <mxCell id="01-RSxm6MQncLrWWWw53-18" value="&lt;font size=&quot;3&quot;&gt;9&lt;/font&gt;" style="rounded=0;whiteSpace=wrap;html=1;" vertex="1" parent="01-RSxm6MQncLrWWWw53-16">
          <mxGeometry x="60" width="40" height="30" as="geometry" />
        </mxCell>
        <mxCell id="01-RSxm6MQncLrWWWw53-19" value="" style="group" vertex="1" connectable="0" parent="1">
          <mxGeometry x="400" y="120" width="160" height="100" as="geometry" />
        </mxCell>
        <mxCell id="01-RSxm6MQncLrWWWw53-20" value="&lt;font style=&quot;font-size: 18px;&quot;&gt;4-я ударная армия&lt;/font&gt;" style="rounded=0;whiteSpace=wrap;html=1;" vertex="1" parent="01-RSxm6MQncLrWWWw53-19">
          <mxGeometry width="160" height="100" as="geometry" />
        </mxCell>
        <mxCell id="01-RSxm6MQncLrWWWw53-21" value="&lt;font size=&quot;3&quot;&gt;8&lt;/font&gt;" style="rounded=0;whiteSpace=wrap;html=1;" vertex="1" parent="01-RSxm6MQncLrWWWw53-19">
          <mxGeometry x="60" width="40" height="30" as="geometry" />
        </mxCell>
        <mxCell id="01-RSxm6MQncLrWWWw53-22" value="" style="group" vertex="1" connectable="0" parent="1">
          <mxGeometry x="600" width="160" height="100" as="geometry" />
        </mxCell>
        <mxCell id="01-RSxm6MQncLrWWWw53-23" value="&lt;font style=&quot;font-size: 18px;&quot;&gt;1-я воздушная армия&lt;/font&gt;" style="rounded=0;whiteSpace=wrap;html=1;" vertex="1" parent="01-RSxm6MQncLrWWWw53-22">
          <mxGeometry width="160" height="100" as="geometry" />
        </mxCell>
        <mxCell id="01-RSxm6MQncLrWWWw53-24" value="&lt;font size=&quot;3&quot;&gt;4&lt;/font&gt;" style="rounded=0;whiteSpace=wrap;html=1;" vertex="1" parent="01-RSxm6MQncLrWWWw53-22">
          <mxGeometry x="60" width="40" height="30" as="geometry" />
        </mxCell>
        <mxCell id="01-RSxm6MQncLrWWWw53-25" value="" style="group" vertex="1" connectable="0" parent="1">
          <mxGeometry x="800" width="160" height="100" as="geometry" />
        </mxCell>
        <mxCell id="01-RSxm6MQncLrWWWw53-26" value="&lt;font style=&quot;font-size: 18px;&quot;&gt;62-я армия&lt;/font&gt;" style="rounded=0;whiteSpace=wrap;html=1;align=center;" vertex="1" parent="01-RSxm6MQncLrWWWw53-25">
          <mxGeometry width="160" height="100" as="geometry" />
        </mxCell>
        <mxCell id="01-RSxm6MQncLrWWWw53-27" value="&lt;font size=&quot;3&quot;&gt;5&lt;/font&gt;" style="rounded=0;whiteSpace=wrap;html=1;" vertex="1" parent="01-RSxm6MQncLrWWWw53-25">
          <mxGeometry x="60" width="40" height="30" as="geometry" />
        </mxCell>
        <mxCell id="01-RSxm6MQncLrWWWw53-28" value="" style="group" vertex="1" connectable="0" parent="1">
          <mxGeometry x="800" y="120" width="160" height="100" as="geometry" />
        </mxCell>
        <mxCell id="01-RSxm6MQncLrWWWw53-29" value="&lt;font style=&quot;font-size: 18px;&quot;&gt;2-я гвардейская армия&lt;/font&gt;" style="rounded=0;whiteSpace=wrap;html=1;" vertex="1" parent="01-RSxm6MQncLrWWWw53-28">
          <mxGeometry width="160" height="100" as="geometry" />
        </mxCell>
        <mxCell id="01-RSxm6MQncLrWWWw53-30" value="&lt;font size=&quot;3&quot;&gt;10&lt;/font&gt;" style="rounded=0;whiteSpace=wrap;html=1;" vertex="1" parent="01-RSxm6MQncLrWWWw53-28">
          <mxGeometry x="60" width="40" height="30" as="geometry" />
        </mxCell>
      </root>
    </mxGraphModel>
  </diagram>
  <diagram name="СлужилС" id="0oGXibSaUPeqPP_VyOfs">
    <mxGraphModel dx="1158" dy="714" grid="1" gridSize="10" guides="1" tooltips="1" connect="1" arrows="1" fold="1" page="1" pageScale="1" pageWidth="1169" pageHeight="827" math="0" shadow="0">
      <root>
        <mxCell id="0" />
        <mxCell id="1" parent="0" />
        <mxCell id="ZuuiXqY9c13idOVzWTpA-18" value="" style="group" parent="1" vertex="1" connectable="0">
          <mxGeometry x="200" y="240" width="120" height="120" as="geometry" />
        </mxCell>
        <mxCell id="ZuuiXqY9c13idOVzWTpA-19" value="&lt;font size=&quot;3&quot;&gt;Демьянская&lt;/font&gt;&lt;div&gt;&lt;font size=&quot;3&quot;&gt;Зоя&lt;/font&gt;&lt;/div&gt;" style="ellipse;whiteSpace=wrap;html=1;" parent="ZuuiXqY9c13idOVzWTpA-18" vertex="1">
          <mxGeometry width="120" height="120" as="geometry" />
        </mxCell>
        <mxCell id="ZuuiXqY9c13idOVzWTpA-20" value="&lt;font size=&quot;3&quot;&gt;7&lt;/font&gt;" style="ellipse;whiteSpace=wrap;html=1;aspect=fixed;" parent="ZuuiXqY9c13idOVzWTpA-18" vertex="1">
          <mxGeometry x="40" width="40" height="40" as="geometry" />
        </mxCell>
        <mxCell id="ZuuiXqY9c13idOVzWTpA-21" value="" style="group" parent="1" vertex="1" connectable="0">
          <mxGeometry x="680" y="40" width="120" height="120" as="geometry" />
        </mxCell>
        <mxCell id="ZuuiXqY9c13idOVzWTpA-22" value="&lt;font size=&quot;3&quot;&gt;Зайцев&lt;/font&gt;&lt;div&gt;&lt;font size=&quot;3&quot;&gt;Василий&lt;/font&gt;&lt;/div&gt;" style="ellipse;whiteSpace=wrap;html=1;" parent="ZuuiXqY9c13idOVzWTpA-21" vertex="1">
          <mxGeometry width="120" height="120" as="geometry" />
        </mxCell>
        <mxCell id="ZuuiXqY9c13idOVzWTpA-23" value="&lt;font size=&quot;3&quot;&gt;5&lt;/font&gt;" style="ellipse;whiteSpace=wrap;html=1;aspect=fixed;" parent="ZuuiXqY9c13idOVzWTpA-21" vertex="1">
          <mxGeometry x="40" width="40" height="40" as="geometry" />
        </mxCell>
        <mxCell id="ZuuiXqY9c13idOVzWTpA-24" value="" style="group" parent="1" vertex="1" connectable="0">
          <mxGeometry x="520" y="240" width="120" height="120" as="geometry" />
        </mxCell>
        <mxCell id="ZuuiXqY9c13idOVzWTpA-25" value="&lt;font size=&quot;3&quot;&gt;Карбышев&lt;/font&gt;&lt;div&gt;&lt;font size=&quot;3&quot;&gt;Дмитрий&lt;/font&gt;&lt;/div&gt;" style="ellipse;whiteSpace=wrap;html=1;" parent="ZuuiXqY9c13idOVzWTpA-24" vertex="1">
          <mxGeometry width="120" height="120" as="geometry" />
        </mxCell>
        <mxCell id="ZuuiXqY9c13idOVzWTpA-26" value="&lt;font size=&quot;3&quot;&gt;9&lt;/font&gt;" style="ellipse;whiteSpace=wrap;html=1;aspect=fixed;" parent="ZuuiXqY9c13idOVzWTpA-24" vertex="1">
          <mxGeometry x="40" width="40" height="40" as="geometry" />
        </mxCell>
        <mxCell id="ZuuiXqY9c13idOVzWTpA-27" value="" style="group" parent="1" vertex="1" connectable="0">
          <mxGeometry x="40" y="240" width="120" height="120" as="geometry" />
        </mxCell>
        <mxCell id="ZuuiXqY9c13idOVzWTpA-28" value="&lt;font size=&quot;3&quot;&gt;Кожедуб&lt;/font&gt;&lt;div&gt;&lt;font size=&quot;3&quot;&gt;Иван&lt;/font&gt;&lt;/div&gt;" style="ellipse;whiteSpace=wrap;html=1;" parent="ZuuiXqY9c13idOVzWTpA-27" vertex="1">
          <mxGeometry width="120" height="120" as="geometry" />
        </mxCell>
        <mxCell id="ZuuiXqY9c13idOVzWTpA-29" value="&lt;font size=&quot;3&quot;&gt;6&lt;/font&gt;" style="ellipse;whiteSpace=wrap;html=1;aspect=fixed;" parent="ZuuiXqY9c13idOVzWTpA-27" vertex="1">
          <mxGeometry x="40" width="40" height="40" as="geometry" />
        </mxCell>
        <mxCell id="ZuuiXqY9c13idOVzWTpA-33" value="" style="group" parent="1" vertex="1" connectable="0">
          <mxGeometry x="360" y="240" width="120" height="120" as="geometry" />
        </mxCell>
        <mxCell id="ZuuiXqY9c13idOVzWTpA-34" value="&lt;font size=&quot;3&quot;&gt;Гастелло&lt;/font&gt;&lt;div&gt;&lt;font size=&quot;3&quot;&gt;Николай&lt;/font&gt;&lt;/div&gt;" style="ellipse;whiteSpace=wrap;html=1;" parent="ZuuiXqY9c13idOVzWTpA-33" vertex="1">
          <mxGeometry width="120" height="120" as="geometry" />
        </mxCell>
        <mxCell id="ZuuiXqY9c13idOVzWTpA-35" value="&lt;font size=&quot;3&quot;&gt;8&lt;/font&gt;" style="ellipse;whiteSpace=wrap;html=1;aspect=fixed;" parent="ZuuiXqY9c13idOVzWTpA-33" vertex="1">
          <mxGeometry x="40" width="40" height="40" as="geometry" />
        </mxCell>
        <mxCell id="ZuuiXqY9c13idOVzWTpA-39" value="" style="group" parent="1" vertex="1" connectable="0">
          <mxGeometry x="360" y="40" width="120" height="120" as="geometry" />
        </mxCell>
        <mxCell id="ZuuiXqY9c13idOVzWTpA-40" value="&lt;font size=&quot;3&quot;&gt;Ватутин Николай&lt;/font&gt;" style="ellipse;whiteSpace=wrap;html=1;" parent="ZuuiXqY9c13idOVzWTpA-39" vertex="1">
          <mxGeometry width="120" height="120" as="geometry" />
        </mxCell>
        <mxCell id="ZuuiXqY9c13idOVzWTpA-41" value="&lt;font size=&quot;3&quot;&gt;3&lt;/font&gt;" style="ellipse;whiteSpace=wrap;html=1;aspect=fixed;" parent="ZuuiXqY9c13idOVzWTpA-39" vertex="1">
          <mxGeometry x="40" width="40" height="40" as="geometry" />
        </mxCell>
        <mxCell id="ZuuiXqY9c13idOVzWTpA-42" value="" style="group" parent="1" vertex="1" connectable="0">
          <mxGeometry x="680" y="240" width="120" height="120" as="geometry" />
        </mxCell>
        <mxCell id="ZuuiXqY9c13idOVzWTpA-43" value="&lt;font size=&quot;3&quot;&gt;Павлов&lt;/font&gt;&lt;div&gt;&lt;font size=&quot;3&quot;&gt;Яков&lt;/font&gt;&lt;/div&gt;" style="ellipse;whiteSpace=wrap;html=1;" parent="ZuuiXqY9c13idOVzWTpA-42" vertex="1">
          <mxGeometry width="120" height="120" as="geometry" />
        </mxCell>
        <mxCell id="ZuuiXqY9c13idOVzWTpA-44" value="&lt;font size=&quot;3&quot;&gt;10&lt;/font&gt;" style="ellipse;whiteSpace=wrap;html=1;aspect=fixed;" parent="ZuuiXqY9c13idOVzWTpA-42" vertex="1">
          <mxGeometry x="40" width="40" height="40" as="geometry" />
        </mxCell>
        <mxCell id="ZuuiXqY9c13idOVzWTpA-45" value="" style="group" parent="1" vertex="1" connectable="0">
          <mxGeometry x="520" y="40" width="120" height="120" as="geometry" />
        </mxCell>
        <mxCell id="ZuuiXqY9c13idOVzWTpA-46" value="&lt;font size=&quot;3&quot;&gt;Чуйков&lt;/font&gt;&lt;div&gt;&lt;font size=&quot;3&quot;&gt;Василий&lt;/font&gt;&lt;/div&gt;" style="ellipse;whiteSpace=wrap;html=1;" parent="ZuuiXqY9c13idOVzWTpA-45" vertex="1">
          <mxGeometry width="120" height="120" as="geometry" />
        </mxCell>
        <mxCell id="ZuuiXqY9c13idOVzWTpA-47" value="&lt;font size=&quot;3&quot;&gt;4&lt;/font&gt;" style="ellipse;whiteSpace=wrap;html=1;aspect=fixed;" parent="ZuuiXqY9c13idOVzWTpA-45" vertex="1">
          <mxGeometry x="40" width="40" height="40" as="geometry" />
        </mxCell>
        <mxCell id="ZuuiXqY9c13idOVzWTpA-15" value="" style="group" parent="1" vertex="1" connectable="0">
          <mxGeometry x="40" y="40" width="120" height="120" as="geometry" />
        </mxCell>
        <mxCell id="ZuuiXqY9c13idOVzWTpA-16" value="&lt;font style=&quot;font-size: 14px;&quot;&gt;Жуков&amp;nbsp;&lt;/font&gt;&lt;div&gt;&lt;font style=&quot;font-size: 14px;&quot;&gt;Георгий&lt;/font&gt;&lt;/div&gt;" style="ellipse;whiteSpace=wrap;html=1;" parent="ZuuiXqY9c13idOVzWTpA-15" vertex="1">
          <mxGeometry width="120" height="120" as="geometry" />
        </mxCell>
        <mxCell id="ZuuiXqY9c13idOVzWTpA-17" value="&lt;font size=&quot;3&quot;&gt;1&lt;/font&gt;" style="ellipse;whiteSpace=wrap;html=1;aspect=fixed;" parent="ZuuiXqY9c13idOVzWTpA-15" vertex="1">
          <mxGeometry x="40" width="40" height="40" as="geometry" />
        </mxCell>
        <mxCell id="ZuuiXqY9c13idOVzWTpA-48" value="" style="group" parent="1" vertex="1" connectable="0">
          <mxGeometry x="200" y="40" width="120" height="120" as="geometry" />
        </mxCell>
        <mxCell id="ZuuiXqY9c13idOVzWTpA-49" value="&lt;font style=&quot;font-size: 14px;&quot;&gt;Рокоссовский Константин&lt;/font&gt;" style="ellipse;whiteSpace=wrap;html=1;" parent="ZuuiXqY9c13idOVzWTpA-48" vertex="1">
          <mxGeometry width="120" height="120" as="geometry" />
        </mxCell>
        <mxCell id="ZuuiXqY9c13idOVzWTpA-50" value="&lt;font size=&quot;3&quot;&gt;2&lt;/font&gt;" style="ellipse;whiteSpace=wrap;html=1;aspect=fixed;" parent="ZuuiXqY9c13idOVzWTpA-48" vertex="1">
          <mxGeometry x="40" width="40" height="40" as="geometry" />
        </mxCell>
        <mxCell id="sLLBvJZctMNZY97QS7p1-8" style="edgeStyle=orthogonalEdgeStyle;rounded=0;orthogonalLoop=1;jettySize=auto;html=1;exitX=1;exitY=0.5;exitDx=0;exitDy=0;entryX=0;entryY=0.5;entryDx=0;entryDy=0;" parent="1" source="ZuuiXqY9c13idOVzWTpA-16" target="ZuuiXqY9c13idOVzWTpA-49" edge="1">
          <mxGeometry relative="1" as="geometry" />
        </mxCell>
        <mxCell id="sLLBvJZctMNZY97QS7p1-11" style="edgeStyle=orthogonalEdgeStyle;rounded=0;orthogonalLoop=1;jettySize=auto;html=1;exitX=1;exitY=0.5;exitDx=0;exitDy=0;entryX=0;entryY=0.5;entryDx=0;entryDy=0;" parent="1" source="ZuuiXqY9c13idOVzWTpA-49" target="ZuuiXqY9c13idOVzWTpA-40" edge="1">
          <mxGeometry relative="1" as="geometry" />
        </mxCell>
        <mxCell id="sLLBvJZctMNZY97QS7p1-12" style="edgeStyle=orthogonalEdgeStyle;rounded=0;orthogonalLoop=1;jettySize=auto;html=1;exitX=1;exitY=0.5;exitDx=0;exitDy=0;entryX=0;entryY=0.5;entryDx=0;entryDy=0;" parent="1" source="ZuuiXqY9c13idOVzWTpA-40" target="ZuuiXqY9c13idOVzWTpA-46" edge="1">
          <mxGeometry relative="1" as="geometry" />
        </mxCell>
        <mxCell id="sLLBvJZctMNZY97QS7p1-13" style="edgeStyle=orthogonalEdgeStyle;rounded=0;orthogonalLoop=1;jettySize=auto;html=1;exitX=1;exitY=0.5;exitDx=0;exitDy=0;entryX=0;entryY=0.5;entryDx=0;entryDy=0;" parent="1" source="ZuuiXqY9c13idOVzWTpA-46" target="ZuuiXqY9c13idOVzWTpA-22" edge="1">
          <mxGeometry relative="1" as="geometry" />
        </mxCell>
        <mxCell id="sLLBvJZctMNZY97QS7p1-14" style="edgeStyle=orthogonalEdgeStyle;rounded=0;orthogonalLoop=1;jettySize=auto;html=1;exitX=0.5;exitY=0;exitDx=0;exitDy=0;entryX=0.5;entryY=1;entryDx=0;entryDy=0;" parent="1" source="ZuuiXqY9c13idOVzWTpA-29" target="ZuuiXqY9c13idOVzWTpA-16" edge="1">
          <mxGeometry relative="1" as="geometry" />
        </mxCell>
        <mxCell id="sLLBvJZctMNZY97QS7p1-16" style="edgeStyle=orthogonalEdgeStyle;rounded=0;orthogonalLoop=1;jettySize=auto;html=1;exitX=0.5;exitY=0;exitDx=0;exitDy=0;entryX=0.5;entryY=1;entryDx=0;entryDy=0;" parent="1" source="ZuuiXqY9c13idOVzWTpA-44" target="ZuuiXqY9c13idOVzWTpA-22" edge="1">
          <mxGeometry relative="1" as="geometry" />
        </mxCell>
        <mxCell id="sLLBvJZctMNZY97QS7p1-22" style="edgeStyle=orthogonalEdgeStyle;rounded=0;orthogonalLoop=1;jettySize=auto;html=1;exitX=1;exitY=0.5;exitDx=0;exitDy=0;entryX=0.5;entryY=0;entryDx=0;entryDy=0;" parent="1" source="ZuuiXqY9c13idOVzWTpA-43" target="ZuuiXqY9c13idOVzWTpA-47" edge="1">
          <mxGeometry relative="1" as="geometry" />
        </mxCell>
        <mxCell id="hsEVH2MuuEg6oqEl43vC-1" style="edgeStyle=orthogonalEdgeStyle;rounded=0;orthogonalLoop=1;jettySize=auto;html=1;exitX=1;exitY=0.5;exitDx=0;exitDy=0;entryX=0;entryY=0.5;entryDx=0;entryDy=0;" edge="1" parent="1" source="ZuuiXqY9c13idOVzWTpA-34" target="ZuuiXqY9c13idOVzWTpA-25">
          <mxGeometry relative="1" as="geometry" />
        </mxCell>
        <mxCell id="hsEVH2MuuEg6oqEl43vC-2" style="edgeStyle=orthogonalEdgeStyle;rounded=0;orthogonalLoop=1;jettySize=auto;html=1;exitX=1;exitY=0.5;exitDx=0;exitDy=0;" edge="1" parent="1" source="ZuuiXqY9c13idOVzWTpA-19" target="ZuuiXqY9c13idOVzWTpA-34">
          <mxGeometry relative="1" as="geometry" />
        </mxCell>
        <mxCell id="hsEVH2MuuEg6oqEl43vC-3" style="edgeStyle=orthogonalEdgeStyle;rounded=0;orthogonalLoop=1;jettySize=auto;html=1;exitX=0.5;exitY=0;exitDx=0;exitDy=0;entryX=0.5;entryY=1;entryDx=0;entryDy=0;" edge="1" parent="1" source="ZuuiXqY9c13idOVzWTpA-19" target="ZuuiXqY9c13idOVzWTpA-49">
          <mxGeometry relative="1" as="geometry" />
        </mxCell>
      </root>
    </mxGraphModel>
  </diagram>
  <diagram id="m5I4LW8eEPerHeQGMh3a" name="УчаствовалВ">
    <mxGraphModel dx="1489" dy="919" grid="1" gridSize="10" guides="1" tooltips="1" connect="1" arrows="1" fold="1" page="1" pageScale="1" pageWidth="1169" pageHeight="827" math="0" shadow="0">
      <root>
        <mxCell id="0" />
        <mxCell id="1" parent="0" />
        <mxCell id="Bq0KHaVe7aVfVTM6Z_HI-1" value="" style="group" vertex="1" connectable="0" parent="1">
          <mxGeometry x="525" y="680" width="120" height="120" as="geometry" />
        </mxCell>
        <mxCell id="Bq0KHaVe7aVfVTM6Z_HI-2" value="&lt;font size=&quot;3&quot;&gt;Демьянская&lt;/font&gt;&lt;div&gt;&lt;font size=&quot;3&quot;&gt;Зоя&lt;/font&gt;&lt;/div&gt;" style="ellipse;whiteSpace=wrap;html=1;" vertex="1" parent="Bq0KHaVe7aVfVTM6Z_HI-1">
          <mxGeometry width="120" height="120" as="geometry" />
        </mxCell>
        <mxCell id="Bq0KHaVe7aVfVTM6Z_HI-3" value="&lt;font size=&quot;3&quot;&gt;7&lt;/font&gt;" style="ellipse;whiteSpace=wrap;html=1;aspect=fixed;" vertex="1" parent="Bq0KHaVe7aVfVTM6Z_HI-1">
          <mxGeometry x="40" width="40" height="40" as="geometry" />
        </mxCell>
        <mxCell id="Bq0KHaVe7aVfVTM6Z_HI-4" value="" style="group" vertex="1" connectable="0" parent="1">
          <mxGeometry x="1000" y="480" width="120" height="120" as="geometry" />
        </mxCell>
        <mxCell id="Bq0KHaVe7aVfVTM6Z_HI-5" value="&lt;font size=&quot;3&quot;&gt;Зайцев&lt;/font&gt;&lt;div&gt;&lt;font size=&quot;3&quot;&gt;Василий&lt;/font&gt;&lt;/div&gt;" style="ellipse;whiteSpace=wrap;html=1;" vertex="1" parent="Bq0KHaVe7aVfVTM6Z_HI-4">
          <mxGeometry width="120" height="120" as="geometry" />
        </mxCell>
        <mxCell id="Bq0KHaVe7aVfVTM6Z_HI-6" value="&lt;font size=&quot;3&quot;&gt;5&lt;/font&gt;" style="ellipse;whiteSpace=wrap;html=1;aspect=fixed;" vertex="1" parent="Bq0KHaVe7aVfVTM6Z_HI-4">
          <mxGeometry x="40" width="40" height="40" as="geometry" />
        </mxCell>
        <mxCell id="Bq0KHaVe7aVfVTM6Z_HI-7" value="" style="group" vertex="1" connectable="0" parent="1">
          <mxGeometry x="40" y="480" width="120" height="120" as="geometry" />
        </mxCell>
        <mxCell id="Bq0KHaVe7aVfVTM6Z_HI-8" value="&lt;font size=&quot;3&quot;&gt;Карбышев&lt;/font&gt;&lt;div&gt;&lt;font size=&quot;3&quot;&gt;Дмитрий&lt;/font&gt;&lt;/div&gt;" style="ellipse;whiteSpace=wrap;html=1;" vertex="1" parent="Bq0KHaVe7aVfVTM6Z_HI-7">
          <mxGeometry width="120" height="120" as="geometry" />
        </mxCell>
        <mxCell id="Bq0KHaVe7aVfVTM6Z_HI-9" value="&lt;font size=&quot;3&quot;&gt;9&lt;/font&gt;" style="ellipse;whiteSpace=wrap;html=1;aspect=fixed;" vertex="1" parent="Bq0KHaVe7aVfVTM6Z_HI-7">
          <mxGeometry x="40" width="40" height="40" as="geometry" />
        </mxCell>
        <mxCell id="Bq0KHaVe7aVfVTM6Z_HI-10" value="" style="group" vertex="1" connectable="0" parent="1">
          <mxGeometry x="1000" y="680" width="120" height="120" as="geometry" />
        </mxCell>
        <mxCell id="Bq0KHaVe7aVfVTM6Z_HI-11" value="&lt;font size=&quot;3&quot;&gt;Кожедуб&lt;/font&gt;&lt;div&gt;&lt;font size=&quot;3&quot;&gt;Иван&lt;/font&gt;&lt;/div&gt;" style="ellipse;whiteSpace=wrap;html=1;" vertex="1" parent="Bq0KHaVe7aVfVTM6Z_HI-10">
          <mxGeometry width="120" height="120" as="geometry" />
        </mxCell>
        <mxCell id="Bq0KHaVe7aVfVTM6Z_HI-12" value="&lt;font size=&quot;3&quot;&gt;6&lt;/font&gt;" style="ellipse;whiteSpace=wrap;html=1;aspect=fixed;" vertex="1" parent="Bq0KHaVe7aVfVTM6Z_HI-10">
          <mxGeometry x="40" width="40" height="40" as="geometry" />
        </mxCell>
        <mxCell id="Bq0KHaVe7aVfVTM6Z_HI-13" value="" style="group" vertex="1" connectable="0" parent="1">
          <mxGeometry x="40" y="680" width="120" height="120" as="geometry" />
        </mxCell>
        <mxCell id="Bq0KHaVe7aVfVTM6Z_HI-14" value="&lt;font size=&quot;3&quot;&gt;Гастелло&lt;/font&gt;&lt;div&gt;&lt;font size=&quot;3&quot;&gt;Николай&lt;/font&gt;&lt;/div&gt;" style="ellipse;whiteSpace=wrap;html=1;" vertex="1" parent="Bq0KHaVe7aVfVTM6Z_HI-13">
          <mxGeometry width="120" height="120" as="geometry" />
        </mxCell>
        <mxCell id="Bq0KHaVe7aVfVTM6Z_HI-15" value="&lt;font size=&quot;3&quot;&gt;8&lt;/font&gt;" style="ellipse;whiteSpace=wrap;html=1;aspect=fixed;" vertex="1" parent="Bq0KHaVe7aVfVTM6Z_HI-13">
          <mxGeometry x="40" width="40" height="40" as="geometry" />
        </mxCell>
        <mxCell id="Bq0KHaVe7aVfVTM6Z_HI-16" value="" style="group" vertex="1" connectable="0" parent="1">
          <mxGeometry x="1000" y="40" width="120" height="120" as="geometry" />
        </mxCell>
        <mxCell id="Bq0KHaVe7aVfVTM6Z_HI-17" value="&lt;font size=&quot;3&quot;&gt;Ватутин Николай&lt;/font&gt;" style="ellipse;whiteSpace=wrap;html=1;" vertex="1" parent="Bq0KHaVe7aVfVTM6Z_HI-16">
          <mxGeometry width="120" height="120" as="geometry" />
        </mxCell>
        <mxCell id="Bq0KHaVe7aVfVTM6Z_HI-18" value="&lt;font size=&quot;3&quot;&gt;3&lt;/font&gt;" style="ellipse;whiteSpace=wrap;html=1;aspect=fixed;" vertex="1" parent="Bq0KHaVe7aVfVTM6Z_HI-16">
          <mxGeometry x="40" width="40" height="40" as="geometry" />
        </mxCell>
        <mxCell id="Bq0KHaVe7aVfVTM6Z_HI-19" value="" style="group" vertex="1" connectable="0" parent="1">
          <mxGeometry x="40" y="240" width="120" height="120" as="geometry" />
        </mxCell>
        <mxCell id="Bq0KHaVe7aVfVTM6Z_HI-20" value="&lt;font size=&quot;3&quot;&gt;Павлов&lt;/font&gt;&lt;div&gt;&lt;font size=&quot;3&quot;&gt;Яков&lt;/font&gt;&lt;/div&gt;" style="ellipse;whiteSpace=wrap;html=1;" vertex="1" parent="Bq0KHaVe7aVfVTM6Z_HI-19">
          <mxGeometry width="120" height="120" as="geometry" />
        </mxCell>
        <mxCell id="Bq0KHaVe7aVfVTM6Z_HI-21" value="&lt;font size=&quot;3&quot;&gt;10&lt;/font&gt;" style="ellipse;whiteSpace=wrap;html=1;aspect=fixed;" vertex="1" parent="Bq0KHaVe7aVfVTM6Z_HI-19">
          <mxGeometry x="40" width="40" height="40" as="geometry" />
        </mxCell>
        <mxCell id="Bq0KHaVe7aVfVTM6Z_HI-22" value="" style="group" vertex="1" connectable="0" parent="1">
          <mxGeometry x="1000" y="240" width="120" height="120" as="geometry" />
        </mxCell>
        <mxCell id="Bq0KHaVe7aVfVTM6Z_HI-23" value="&lt;font size=&quot;3&quot;&gt;Чуйков&lt;/font&gt;&lt;div&gt;&lt;font size=&quot;3&quot;&gt;Василий&lt;/font&gt;&lt;/div&gt;" style="ellipse;whiteSpace=wrap;html=1;" vertex="1" parent="Bq0KHaVe7aVfVTM6Z_HI-22">
          <mxGeometry width="120" height="120" as="geometry" />
        </mxCell>
        <mxCell id="Bq0KHaVe7aVfVTM6Z_HI-24" value="&lt;font size=&quot;3&quot;&gt;4&lt;/font&gt;" style="ellipse;whiteSpace=wrap;html=1;aspect=fixed;" vertex="1" parent="Bq0KHaVe7aVfVTM6Z_HI-22">
          <mxGeometry x="40" width="40" height="40" as="geometry" />
        </mxCell>
        <mxCell id="Bq0KHaVe7aVfVTM6Z_HI-25" value="" style="group" vertex="1" connectable="0" parent="1">
          <mxGeometry x="40" y="40" width="120" height="120" as="geometry" />
        </mxCell>
        <mxCell id="Bq0KHaVe7aVfVTM6Z_HI-26" value="&lt;font style=&quot;font-size: 14px;&quot;&gt;Жуков&amp;nbsp;&lt;/font&gt;&lt;div&gt;&lt;font style=&quot;font-size: 14px;&quot;&gt;Георгий&lt;/font&gt;&lt;/div&gt;" style="ellipse;whiteSpace=wrap;html=1;" vertex="1" parent="Bq0KHaVe7aVfVTM6Z_HI-25">
          <mxGeometry width="120" height="120" as="geometry" />
        </mxCell>
        <mxCell id="Bq0KHaVe7aVfVTM6Z_HI-27" value="&lt;font size=&quot;3&quot;&gt;1&lt;/font&gt;" style="ellipse;whiteSpace=wrap;html=1;aspect=fixed;" vertex="1" parent="Bq0KHaVe7aVfVTM6Z_HI-25">
          <mxGeometry x="40" width="40" height="40" as="geometry" />
        </mxCell>
        <mxCell id="Bq0KHaVe7aVfVTM6Z_HI-28" value="" style="group" vertex="1" connectable="0" parent="1">
          <mxGeometry x="525" y="40" width="120" height="120" as="geometry" />
        </mxCell>
        <mxCell id="Bq0KHaVe7aVfVTM6Z_HI-29" value="&lt;font style=&quot;font-size: 14px;&quot;&gt;Рокоссовский Константин&lt;/font&gt;" style="ellipse;whiteSpace=wrap;html=1;" vertex="1" parent="Bq0KHaVe7aVfVTM6Z_HI-28">
          <mxGeometry width="120" height="120" as="geometry" />
        </mxCell>
        <mxCell id="Bq0KHaVe7aVfVTM6Z_HI-30" value="&lt;font size=&quot;3&quot;&gt;2&lt;/font&gt;" style="ellipse;whiteSpace=wrap;html=1;aspect=fixed;" vertex="1" parent="Bq0KHaVe7aVfVTM6Z_HI-28">
          <mxGeometry x="40" width="40" height="40" as="geometry" />
        </mxCell>
        <mxCell id="c63n90BuewsZkMfr2H5R-1" value="" style="group" vertex="1" connectable="0" parent="1">
          <mxGeometry x="365" y="490" width="160" height="130" as="geometry" />
        </mxCell>
        <mxCell id="c63n90BuewsZkMfr2H5R-2" value="&lt;font style=&quot;font-size: 16px;&quot;&gt;Прорыв&amp;nbsp;&lt;/font&gt;&lt;div&gt;&lt;font style=&quot;font-size: 16px;&quot;&gt;блокады&amp;nbsp;&lt;/font&gt;&lt;/div&gt;&lt;div&gt;&lt;font style=&quot;font-size: 16px;&quot;&gt;Ленинграда&lt;/font&gt;&lt;/div&gt;" style="ellipse;shape=cloud;whiteSpace=wrap;html=1;" vertex="1" parent="c63n90BuewsZkMfr2H5R-1">
          <mxGeometry y="10" width="160" height="120" as="geometry" />
        </mxCell>
        <mxCell id="c63n90BuewsZkMfr2H5R-3" value="&lt;font size=&quot;3&quot;&gt;7&lt;/font&gt;" style="ellipse;shape=cloud;whiteSpace=wrap;html=1;" vertex="1" parent="c63n90BuewsZkMfr2H5R-1">
          <mxGeometry x="50" width="60" height="50" as="geometry" />
        </mxCell>
        <mxCell id="c63n90BuewsZkMfr2H5R-4" value="" style="group" vertex="1" connectable="0" parent="1">
          <mxGeometry x="470" y="220" width="160" height="130" as="geometry" />
        </mxCell>
        <mxCell id="c63n90BuewsZkMfr2H5R-5" value="&lt;font style=&quot;font-size: 16px;&quot;&gt;Берлинская операция&lt;/font&gt;" style="ellipse;shape=cloud;whiteSpace=wrap;html=1;" vertex="1" parent="c63n90BuewsZkMfr2H5R-4">
          <mxGeometry y="10" width="160" height="120" as="geometry" />
        </mxCell>
        <mxCell id="c63n90BuewsZkMfr2H5R-6" value="&lt;font size=&quot;3&quot;&gt;5&lt;/font&gt;" style="ellipse;shape=cloud;whiteSpace=wrap;html=1;" vertex="1" parent="c63n90BuewsZkMfr2H5R-4">
          <mxGeometry x="50" width="60" height="50" as="geometry" />
        </mxCell>
        <mxCell id="c63n90BuewsZkMfr2H5R-7" value="" style="group" vertex="1" connectable="0" parent="1">
          <mxGeometry x="560" y="460" width="160" height="130" as="geometry" />
        </mxCell>
        <mxCell id="c63n90BuewsZkMfr2H5R-8" value="&lt;font style=&quot;font-size: 16px;&quot;&gt;Смоленское сражение&lt;/font&gt;" style="ellipse;shape=cloud;whiteSpace=wrap;html=1;" vertex="1" parent="c63n90BuewsZkMfr2H5R-7">
          <mxGeometry y="10" width="160" height="120" as="geometry" />
        </mxCell>
        <mxCell id="c63n90BuewsZkMfr2H5R-9" value="&lt;font size=&quot;3&quot;&gt;8&lt;/font&gt;" style="ellipse;shape=cloud;whiteSpace=wrap;html=1;" vertex="1" parent="c63n90BuewsZkMfr2H5R-7">
          <mxGeometry x="50" width="60" height="50" as="geometry" />
        </mxCell>
        <mxCell id="c63n90BuewsZkMfr2H5R-10" value="" style="group" vertex="1" connectable="0" parent="1">
          <mxGeometry x="210" y="610" width="160" height="130" as="geometry" />
        </mxCell>
        <mxCell id="c63n90BuewsZkMfr2H5R-11" value="&lt;font style=&quot;font-size: 16px;&quot;&gt;Оборона&amp;nbsp;&lt;/font&gt;&lt;div&gt;&lt;font style=&quot;font-size: 16px;&quot;&gt;Бреста&lt;/font&gt;&lt;/div&gt;" style="ellipse;shape=cloud;whiteSpace=wrap;html=1;" vertex="1" parent="c63n90BuewsZkMfr2H5R-10">
          <mxGeometry y="10" width="160" height="120" as="geometry" />
        </mxCell>
        <mxCell id="c63n90BuewsZkMfr2H5R-12" value="&lt;font size=&quot;3&quot;&gt;6&lt;/font&gt;" style="ellipse;shape=cloud;whiteSpace=wrap;html=1;" vertex="1" parent="c63n90BuewsZkMfr2H5R-10">
          <mxGeometry x="50" width="60" height="50" as="geometry" />
        </mxCell>
        <mxCell id="c63n90BuewsZkMfr2H5R-13" value="" style="group" vertex="1" connectable="0" parent="1">
          <mxGeometry x="750" y="540" width="160" height="130" as="geometry" />
        </mxCell>
        <mxCell id="c63n90BuewsZkMfr2H5R-14" value="&lt;font style=&quot;font-size: 16px;&quot;&gt;Висло-Одерская операция&lt;/font&gt;" style="ellipse;shape=cloud;whiteSpace=wrap;html=1;" vertex="1" parent="c63n90BuewsZkMfr2H5R-13">
          <mxGeometry y="10" width="160" height="120" as="geometry" />
        </mxCell>
        <mxCell id="c63n90BuewsZkMfr2H5R-15" value="&lt;font size=&quot;3&quot;&gt;10&lt;/font&gt;" style="ellipse;shape=cloud;whiteSpace=wrap;html=1;" vertex="1" parent="c63n90BuewsZkMfr2H5R-13">
          <mxGeometry x="50" width="60" height="50" as="geometry" />
        </mxCell>
        <mxCell id="c63n90BuewsZkMfr2H5R-16" value="" style="group" vertex="1" connectable="0" parent="1">
          <mxGeometry x="760" y="70" width="160" height="130" as="geometry" />
        </mxCell>
        <mxCell id="c63n90BuewsZkMfr2H5R-17" value="&lt;font style=&quot;font-size: 16px;&quot;&gt;Харьковская операция&lt;/font&gt;" style="ellipse;shape=cloud;whiteSpace=wrap;html=1;" vertex="1" parent="c63n90BuewsZkMfr2H5R-16">
          <mxGeometry y="10" width="160" height="120" as="geometry" />
        </mxCell>
        <mxCell id="c63n90BuewsZkMfr2H5R-18" value="&lt;font size=&quot;3&quot;&gt;9&lt;/font&gt;" style="ellipse;shape=cloud;whiteSpace=wrap;html=1;" vertex="1" parent="c63n90BuewsZkMfr2H5R-16">
          <mxGeometry x="50" width="60" height="50" as="geometry" />
        </mxCell>
        <mxCell id="c63n90BuewsZkMfr2H5R-19" value="" style="group" vertex="1" connectable="0" parent="1">
          <mxGeometry x="230" y="300" width="160" height="130" as="geometry" />
        </mxCell>
        <mxCell id="c63n90BuewsZkMfr2H5R-20" value="&lt;font style=&quot;font-size: 16px;&quot;&gt;Курская&amp;nbsp;&lt;/font&gt;&lt;div&gt;&lt;font style=&quot;font-size: 16px;&quot;&gt;битва&lt;/font&gt;&lt;/div&gt;" style="ellipse;shape=cloud;whiteSpace=wrap;html=1;align=center;" vertex="1" parent="c63n90BuewsZkMfr2H5R-19">
          <mxGeometry y="10" width="160" height="120" as="geometry" />
        </mxCell>
        <mxCell id="c63n90BuewsZkMfr2H5R-21" value="&lt;font size=&quot;3&quot;&gt;3&lt;/font&gt;" style="ellipse;shape=cloud;whiteSpace=wrap;html=1;" vertex="1" parent="c63n90BuewsZkMfr2H5R-19">
          <mxGeometry x="50" width="60" height="50" as="geometry" />
        </mxCell>
        <mxCell id="c63n90BuewsZkMfr2H5R-22" value="" style="group" vertex="1" connectable="0" parent="1">
          <mxGeometry x="230" y="140" width="160" height="130" as="geometry" />
        </mxCell>
        <mxCell id="c63n90BuewsZkMfr2H5R-23" value="&lt;font style=&quot;font-size: 16px;&quot;&gt;Оборона&amp;nbsp;&lt;/font&gt;&lt;div&gt;&lt;font style=&quot;font-size: 16px;&quot;&gt;Москвы&lt;/font&gt;&lt;/div&gt;" style="ellipse;shape=cloud;whiteSpace=wrap;html=1;" vertex="1" parent="c63n90BuewsZkMfr2H5R-22">
          <mxGeometry y="10" width="160" height="120" as="geometry" />
        </mxCell>
        <mxCell id="c63n90BuewsZkMfr2H5R-24" value="&lt;font size=&quot;3&quot;&gt;1&lt;/font&gt;" style="ellipse;shape=cloud;whiteSpace=wrap;html=1;" vertex="1" parent="c63n90BuewsZkMfr2H5R-22">
          <mxGeometry x="50" width="60" height="50" as="geometry" />
        </mxCell>
        <mxCell id="c63n90BuewsZkMfr2H5R-25" value="" style="group" vertex="1" connectable="0" parent="1">
          <mxGeometry x="740" y="235" width="160" height="130" as="geometry" />
        </mxCell>
        <mxCell id="c63n90BuewsZkMfr2H5R-26" value="&lt;font style=&quot;font-size: 16px;&quot;&gt;Операция&amp;nbsp;&lt;/font&gt;&lt;div&gt;&lt;font style=&quot;font-size: 16px;&quot;&gt;Багратион&lt;/font&gt;&lt;/div&gt;" style="ellipse;shape=cloud;whiteSpace=wrap;html=1;" vertex="1" parent="c63n90BuewsZkMfr2H5R-25">
          <mxGeometry y="10" width="160" height="120" as="geometry" />
        </mxCell>
        <mxCell id="c63n90BuewsZkMfr2H5R-27" value="&lt;font size=&quot;3&quot;&gt;4&lt;/font&gt;" style="ellipse;shape=cloud;whiteSpace=wrap;html=1;" vertex="1" parent="c63n90BuewsZkMfr2H5R-25">
          <mxGeometry x="50" width="60" height="50" as="geometry" />
        </mxCell>
        <mxCell id="c63n90BuewsZkMfr2H5R-28" value="" style="group" vertex="1" connectable="0" parent="1">
          <mxGeometry x="750" y="390" width="160" height="130" as="geometry" />
        </mxCell>
        <mxCell id="c63n90BuewsZkMfr2H5R-29" value="&lt;font style=&quot;font-size: 16px;&quot;&gt;Сталинградская битва&lt;/font&gt;" style="ellipse;shape=cloud;whiteSpace=wrap;html=1;" vertex="1" parent="c63n90BuewsZkMfr2H5R-28">
          <mxGeometry y="10" width="160" height="120" as="geometry" />
        </mxCell>
        <mxCell id="c63n90BuewsZkMfr2H5R-30" value="&lt;font size=&quot;3&quot;&gt;2&lt;/font&gt;" style="ellipse;shape=cloud;whiteSpace=wrap;html=1;" vertex="1" parent="c63n90BuewsZkMfr2H5R-28">
          <mxGeometry x="50" width="60" height="50" as="geometry" />
        </mxCell>
        <mxCell id="c63n90BuewsZkMfr2H5R-31" style="edgeStyle=orthogonalEdgeStyle;rounded=0;orthogonalLoop=1;jettySize=auto;html=1;exitX=1;exitY=0.5;exitDx=0;exitDy=0;entryX=0.25;entryY=0.25;entryDx=0;entryDy=0;entryPerimeter=0;" edge="1" parent="1" source="Bq0KHaVe7aVfVTM6Z_HI-26" target="c63n90BuewsZkMfr2H5R-23">
          <mxGeometry relative="1" as="geometry">
            <Array as="points">
              <mxPoint x="230" y="100" />
              <mxPoint x="230" y="180" />
            </Array>
          </mxGeometry>
        </mxCell>
        <mxCell id="c63n90BuewsZkMfr2H5R-34" style="edgeStyle=orthogonalEdgeStyle;rounded=0;orthogonalLoop=1;jettySize=auto;html=1;exitX=1;exitY=1;exitDx=0;exitDy=0;entryX=0.069;entryY=0.337;entryDx=0;entryDy=0;entryPerimeter=0;" edge="1" parent="1" source="Bq0KHaVe7aVfVTM6Z_HI-26" target="c63n90BuewsZkMfr2H5R-20">
          <mxGeometry relative="1" as="geometry">
            <Array as="points">
              <mxPoint x="142" y="210" />
              <mxPoint x="220" y="210" />
              <mxPoint x="220" y="350" />
            </Array>
          </mxGeometry>
        </mxCell>
        <mxCell id="c63n90BuewsZkMfr2H5R-35" style="edgeStyle=orthogonalEdgeStyle;rounded=0;orthogonalLoop=1;jettySize=auto;html=1;exitX=0;exitY=1;exitDx=0;exitDy=0;entryX=0.88;entryY=0.25;entryDx=0;entryDy=0;entryPerimeter=0;" edge="1" parent="1" source="Bq0KHaVe7aVfVTM6Z_HI-29" target="c63n90BuewsZkMfr2H5R-23">
          <mxGeometry relative="1" as="geometry" />
        </mxCell>
        <mxCell id="c63n90BuewsZkMfr2H5R-36" style="edgeStyle=orthogonalEdgeStyle;rounded=0;orthogonalLoop=1;jettySize=auto;html=1;exitX=1;exitY=0;exitDx=0;exitDy=0;entryX=0.813;entryY=0.167;entryDx=0;entryDy=0;entryPerimeter=0;" edge="1" parent="1" source="Bq0KHaVe7aVfVTM6Z_HI-26" target="c63n90BuewsZkMfr2H5R-5">
          <mxGeometry relative="1" as="geometry">
            <Array as="points">
              <mxPoint x="142" y="20" />
              <mxPoint x="660" y="20" />
              <mxPoint x="660" y="250" />
            </Array>
          </mxGeometry>
        </mxCell>
        <mxCell id="c63n90BuewsZkMfr2H5R-37" style="edgeStyle=orthogonalEdgeStyle;rounded=0;orthogonalLoop=1;jettySize=auto;html=1;exitX=0.5;exitY=1;exitDx=0;exitDy=0;entryX=0.13;entryY=0.77;entryDx=0;entryDy=0;entryPerimeter=0;" edge="1" parent="1" source="Bq0KHaVe7aVfVTM6Z_HI-29" target="c63n90BuewsZkMfr2H5R-26">
          <mxGeometry relative="1" as="geometry">
            <Array as="points">
              <mxPoint x="585" y="210" />
              <mxPoint x="450" y="210" />
              <mxPoint x="450" y="360" />
              <mxPoint x="741" y="360" />
            </Array>
          </mxGeometry>
        </mxCell>
        <mxCell id="c63n90BuewsZkMfr2H5R-38" style="edgeStyle=orthogonalEdgeStyle;rounded=0;orthogonalLoop=1;jettySize=auto;html=1;exitX=0;exitY=1;exitDx=0;exitDy=0;entryX=0.88;entryY=0.25;entryDx=0;entryDy=0;entryPerimeter=0;" edge="1" parent="1" source="Bq0KHaVe7aVfVTM6Z_HI-23" target="c63n90BuewsZkMfr2H5R-29">
          <mxGeometry relative="1" as="geometry">
            <Array as="points">
              <mxPoint x="910" y="342" />
              <mxPoint x="910" y="430" />
            </Array>
          </mxGeometry>
        </mxCell>
        <mxCell id="c63n90BuewsZkMfr2H5R-39" style="edgeStyle=orthogonalEdgeStyle;rounded=0;orthogonalLoop=1;jettySize=auto;html=1;exitX=0;exitY=0;exitDx=0;exitDy=0;entryX=0.985;entryY=0.601;entryDx=0;entryDy=0;entryPerimeter=0;" edge="1" parent="1" source="Bq0KHaVe7aVfVTM6Z_HI-23" target="c63n90BuewsZkMfr2H5R-5">
          <mxGeometry relative="1" as="geometry">
            <Array as="points">
              <mxPoint x="1018" y="220" />
              <mxPoint x="710" y="220" />
              <mxPoint x="710" y="302" />
            </Array>
          </mxGeometry>
        </mxCell>
        <mxCell id="c63n90BuewsZkMfr2H5R-40" style="edgeStyle=orthogonalEdgeStyle;rounded=0;orthogonalLoop=1;jettySize=auto;html=1;exitX=0;exitY=0.5;exitDx=0;exitDy=0;entryX=0.88;entryY=0.25;entryDx=0;entryDy=0;entryPerimeter=0;" edge="1" parent="1" source="Bq0KHaVe7aVfVTM6Z_HI-17" target="c63n90BuewsZkMfr2H5R-17">
          <mxGeometry relative="1" as="geometry" />
        </mxCell>
        <mxCell id="c63n90BuewsZkMfr2H5R-41" style="edgeStyle=orthogonalEdgeStyle;rounded=0;orthogonalLoop=1;jettySize=auto;html=1;exitX=0;exitY=0.5;exitDx=0;exitDy=0;entryX=0.913;entryY=0.354;entryDx=0;entryDy=0;entryPerimeter=0;" edge="1" parent="1" source="Bq0KHaVe7aVfVTM6Z_HI-5" target="c63n90BuewsZkMfr2H5R-14">
          <mxGeometry relative="1" as="geometry" />
        </mxCell>
        <mxCell id="c63n90BuewsZkMfr2H5R-42" style="edgeStyle=orthogonalEdgeStyle;rounded=0;orthogonalLoop=1;jettySize=auto;html=1;exitX=0;exitY=0;exitDx=0;exitDy=0;entryX=0.892;entryY=0.782;entryDx=0;entryDy=0;entryPerimeter=0;" edge="1" parent="1" source="Bq0KHaVe7aVfVTM6Z_HI-11" target="c63n90BuewsZkMfr2H5R-14">
          <mxGeometry relative="1" as="geometry" />
        </mxCell>
        <mxCell id="c63n90BuewsZkMfr2H5R-43" style="edgeStyle=orthogonalEdgeStyle;rounded=0;orthogonalLoop=1;jettySize=auto;html=1;exitX=1;exitY=0;exitDx=0;exitDy=0;entryX=0.55;entryY=0.95;entryDx=0;entryDy=0;entryPerimeter=0;" edge="1" parent="1" source="Bq0KHaVe7aVfVTM6Z_HI-2" target="c63n90BuewsZkMfr2H5R-8">
          <mxGeometry relative="1" as="geometry" />
        </mxCell>
        <mxCell id="c63n90BuewsZkMfr2H5R-44" style="edgeStyle=orthogonalEdgeStyle;rounded=0;orthogonalLoop=1;jettySize=auto;html=1;exitX=1;exitY=0.5;exitDx=0;exitDy=0;entryX=0.55;entryY=0.95;entryDx=0;entryDy=0;entryPerimeter=0;" edge="1" parent="1" source="Bq0KHaVe7aVfVTM6Z_HI-14" target="c63n90BuewsZkMfr2H5R-11">
          <mxGeometry relative="1" as="geometry">
            <Array as="points">
              <mxPoint x="215" y="740" />
              <mxPoint x="215" y="770" />
              <mxPoint x="358" y="770" />
            </Array>
          </mxGeometry>
        </mxCell>
        <mxCell id="c63n90BuewsZkMfr2H5R-45" style="edgeStyle=orthogonalEdgeStyle;rounded=0;orthogonalLoop=1;jettySize=auto;html=1;exitX=1;exitY=0.5;exitDx=0;exitDy=0;entryX=0.07;entryY=0.4;entryDx=0;entryDy=0;entryPerimeter=0;" edge="1" parent="1" source="Bq0KHaVe7aVfVTM6Z_HI-8" target="c63n90BuewsZkMfr2H5R-2">
          <mxGeometry relative="1" as="geometry" />
        </mxCell>
        <mxCell id="c63n90BuewsZkMfr2H5R-46" style="edgeStyle=orthogonalEdgeStyle;rounded=0;orthogonalLoop=1;jettySize=auto;html=1;exitX=0.5;exitY=1;exitDx=0;exitDy=0;entryX=0.07;entryY=0.4;entryDx=0;entryDy=0;entryPerimeter=0;" edge="1" parent="1" source="Bq0KHaVe7aVfVTM6Z_HI-20" target="c63n90BuewsZkMfr2H5R-29">
          <mxGeometry relative="1" as="geometry">
            <Array as="points">
              <mxPoint x="100" y="448" />
            </Array>
          </mxGeometry>
        </mxCell>
      </root>
    </mxGraphModel>
  </diagram>
  <diagram id="6ogKW2h7pDXleiFzJMN9" name="Командовал">
    <mxGraphModel dx="1737" dy="1072" grid="1" gridSize="10" guides="1" tooltips="1" connect="1" arrows="1" fold="1" page="1" pageScale="1" pageWidth="1169" pageHeight="827" math="0" shadow="0">
      <root>
        <mxCell id="0" />
        <mxCell id="1" parent="0" />
        <mxCell id="qecnjgu84kB3Tcle1Ytw-1" value="" style="group" vertex="1" connectable="0" parent="1">
          <mxGeometry x="40" y="480" width="120" height="120" as="geometry" />
        </mxCell>
        <mxCell id="qecnjgu84kB3Tcle1Ytw-2" value="&lt;font size=&quot;3&quot;&gt;Демьянская&lt;/font&gt;&lt;div&gt;&lt;font size=&quot;3&quot;&gt;Зоя&lt;/font&gt;&lt;/div&gt;" style="ellipse;whiteSpace=wrap;html=1;" vertex="1" parent="qecnjgu84kB3Tcle1Ytw-1">
          <mxGeometry width="120" height="120" as="geometry" />
        </mxCell>
        <mxCell id="qecnjgu84kB3Tcle1Ytw-3" value="&lt;font size=&quot;3&quot;&gt;7&lt;/font&gt;" style="ellipse;whiteSpace=wrap;html=1;aspect=fixed;" vertex="1" parent="qecnjgu84kB3Tcle1Ytw-1">
          <mxGeometry x="40" width="40" height="40" as="geometry" />
        </mxCell>
        <mxCell id="qecnjgu84kB3Tcle1Ytw-4" value="" style="group" vertex="1" connectable="0" parent="1">
          <mxGeometry x="525" y="680" width="120" height="120" as="geometry" />
        </mxCell>
        <mxCell id="qecnjgu84kB3Tcle1Ytw-5" value="&lt;font size=&quot;3&quot;&gt;Зайцев&lt;/font&gt;&lt;div&gt;&lt;font size=&quot;3&quot;&gt;Василий&lt;/font&gt;&lt;/div&gt;" style="ellipse;whiteSpace=wrap;html=1;" vertex="1" parent="qecnjgu84kB3Tcle1Ytw-4">
          <mxGeometry width="120" height="120" as="geometry" />
        </mxCell>
        <mxCell id="qecnjgu84kB3Tcle1Ytw-6" value="&lt;font size=&quot;3&quot;&gt;5&lt;/font&gt;" style="ellipse;whiteSpace=wrap;html=1;aspect=fixed;" vertex="1" parent="qecnjgu84kB3Tcle1Ytw-4">
          <mxGeometry x="40" width="40" height="40" as="geometry" />
        </mxCell>
        <mxCell id="qecnjgu84kB3Tcle1Ytw-7" value="" style="group" vertex="1" connectable="0" parent="1">
          <mxGeometry x="40" y="40" width="120" height="120" as="geometry" />
        </mxCell>
        <mxCell id="qecnjgu84kB3Tcle1Ytw-8" value="&lt;font size=&quot;3&quot;&gt;Карбышев&lt;/font&gt;&lt;div&gt;&lt;font size=&quot;3&quot;&gt;Дмитрий&lt;/font&gt;&lt;/div&gt;" style="ellipse;whiteSpace=wrap;html=1;" vertex="1" parent="qecnjgu84kB3Tcle1Ytw-7">
          <mxGeometry width="120" height="120" as="geometry" />
        </mxCell>
        <mxCell id="qecnjgu84kB3Tcle1Ytw-9" value="&lt;font size=&quot;3&quot;&gt;9&lt;/font&gt;" style="ellipse;whiteSpace=wrap;html=1;aspect=fixed;" vertex="1" parent="qecnjgu84kB3Tcle1Ytw-7">
          <mxGeometry x="40" width="40" height="40" as="geometry" />
        </mxCell>
        <mxCell id="qecnjgu84kB3Tcle1Ytw-10" value="" style="group" vertex="1" connectable="0" parent="1">
          <mxGeometry x="40" y="680" width="120" height="120" as="geometry" />
        </mxCell>
        <mxCell id="qecnjgu84kB3Tcle1Ytw-11" value="&lt;font size=&quot;3&quot;&gt;Кожедуб&lt;/font&gt;&lt;div&gt;&lt;font size=&quot;3&quot;&gt;Иван&lt;/font&gt;&lt;/div&gt;" style="ellipse;whiteSpace=wrap;html=1;" vertex="1" parent="qecnjgu84kB3Tcle1Ytw-10">
          <mxGeometry width="120" height="120" as="geometry" />
        </mxCell>
        <mxCell id="qecnjgu84kB3Tcle1Ytw-12" value="&lt;font size=&quot;3&quot;&gt;6&lt;/font&gt;" style="ellipse;whiteSpace=wrap;html=1;aspect=fixed;" vertex="1" parent="qecnjgu84kB3Tcle1Ytw-10">
          <mxGeometry x="40" width="40" height="40" as="geometry" />
        </mxCell>
        <mxCell id="qecnjgu84kB3Tcle1Ytw-13" value="" style="group" vertex="1" connectable="0" parent="1">
          <mxGeometry x="40" y="240" width="120" height="120" as="geometry" />
        </mxCell>
        <mxCell id="qecnjgu84kB3Tcle1Ytw-14" value="&lt;font size=&quot;3&quot;&gt;Гастелло&lt;/font&gt;&lt;div&gt;&lt;font size=&quot;3&quot;&gt;Николай&lt;/font&gt;&lt;/div&gt;" style="ellipse;whiteSpace=wrap;html=1;" vertex="1" parent="qecnjgu84kB3Tcle1Ytw-13">
          <mxGeometry width="120" height="120" as="geometry" />
        </mxCell>
        <mxCell id="qecnjgu84kB3Tcle1Ytw-15" value="&lt;font size=&quot;3&quot;&gt;8&lt;/font&gt;" style="ellipse;whiteSpace=wrap;html=1;aspect=fixed;" vertex="1" parent="qecnjgu84kB3Tcle1Ytw-13">
          <mxGeometry x="40" width="40" height="40" as="geometry" />
        </mxCell>
        <mxCell id="qecnjgu84kB3Tcle1Ytw-16" value="" style="group" vertex="1" connectable="0" parent="1">
          <mxGeometry x="1010" y="480" width="120" height="120" as="geometry" />
        </mxCell>
        <mxCell id="qecnjgu84kB3Tcle1Ytw-17" value="&lt;font size=&quot;3&quot;&gt;Ватутин Николай&lt;/font&gt;" style="ellipse;whiteSpace=wrap;html=1;" vertex="1" parent="qecnjgu84kB3Tcle1Ytw-16">
          <mxGeometry width="120" height="120" as="geometry" />
        </mxCell>
        <mxCell id="qecnjgu84kB3Tcle1Ytw-18" value="&lt;font size=&quot;3&quot;&gt;3&lt;/font&gt;" style="ellipse;whiteSpace=wrap;html=1;aspect=fixed;" vertex="1" parent="qecnjgu84kB3Tcle1Ytw-16">
          <mxGeometry x="40" width="40" height="40" as="geometry" />
        </mxCell>
        <mxCell id="qecnjgu84kB3Tcle1Ytw-19" value="" style="group" vertex="1" connectable="0" parent="1">
          <mxGeometry x="525" y="40" width="120" height="120" as="geometry" />
        </mxCell>
        <mxCell id="qecnjgu84kB3Tcle1Ytw-20" value="&lt;font size=&quot;3&quot;&gt;Павлов&lt;/font&gt;&lt;div&gt;&lt;font size=&quot;3&quot;&gt;Яков&lt;/font&gt;&lt;/div&gt;" style="ellipse;whiteSpace=wrap;html=1;" vertex="1" parent="qecnjgu84kB3Tcle1Ytw-19">
          <mxGeometry width="120" height="120" as="geometry" />
        </mxCell>
        <mxCell id="qecnjgu84kB3Tcle1Ytw-21" value="&lt;font size=&quot;3&quot;&gt;10&lt;/font&gt;" style="ellipse;whiteSpace=wrap;html=1;aspect=fixed;" vertex="1" parent="qecnjgu84kB3Tcle1Ytw-19">
          <mxGeometry x="40" width="40" height="40" as="geometry" />
        </mxCell>
        <mxCell id="qecnjgu84kB3Tcle1Ytw-22" value="" style="group" vertex="1" connectable="0" parent="1">
          <mxGeometry x="1010" y="680" width="120" height="120" as="geometry" />
        </mxCell>
        <mxCell id="qecnjgu84kB3Tcle1Ytw-23" value="&lt;font size=&quot;3&quot;&gt;Чуйков&lt;/font&gt;&lt;div&gt;&lt;font size=&quot;3&quot;&gt;Василий&lt;/font&gt;&lt;/div&gt;" style="ellipse;whiteSpace=wrap;html=1;" vertex="1" parent="qecnjgu84kB3Tcle1Ytw-22">
          <mxGeometry width="120" height="120" as="geometry" />
        </mxCell>
        <mxCell id="qecnjgu84kB3Tcle1Ytw-24" value="&lt;font size=&quot;3&quot;&gt;4&lt;/font&gt;" style="ellipse;whiteSpace=wrap;html=1;aspect=fixed;" vertex="1" parent="qecnjgu84kB3Tcle1Ytw-22">
          <mxGeometry x="40" width="40" height="40" as="geometry" />
        </mxCell>
        <mxCell id="qecnjgu84kB3Tcle1Ytw-25" value="" style="group" vertex="1" connectable="0" parent="1">
          <mxGeometry x="1010" y="40" width="120" height="120" as="geometry" />
        </mxCell>
        <mxCell id="qecnjgu84kB3Tcle1Ytw-26" value="&lt;font style=&quot;font-size: 14px;&quot;&gt;Жуков&amp;nbsp;&lt;/font&gt;&lt;div&gt;&lt;font style=&quot;font-size: 14px;&quot;&gt;Георгий&lt;/font&gt;&lt;/div&gt;" style="ellipse;whiteSpace=wrap;html=1;" vertex="1" parent="qecnjgu84kB3Tcle1Ytw-25">
          <mxGeometry width="120" height="120" as="geometry" />
        </mxCell>
        <mxCell id="qecnjgu84kB3Tcle1Ytw-27" value="&lt;font size=&quot;3&quot;&gt;1&lt;/font&gt;" style="ellipse;whiteSpace=wrap;html=1;aspect=fixed;" vertex="1" parent="qecnjgu84kB3Tcle1Ytw-25">
          <mxGeometry x="40" width="40" height="40" as="geometry" />
        </mxCell>
        <mxCell id="qecnjgu84kB3Tcle1Ytw-28" value="" style="group" vertex="1" connectable="0" parent="1">
          <mxGeometry x="1010" y="240" width="120" height="120" as="geometry" />
        </mxCell>
        <mxCell id="qecnjgu84kB3Tcle1Ytw-29" value="&lt;font style=&quot;font-size: 14px;&quot;&gt;Рокоссовский Константин&lt;/font&gt;" style="ellipse;whiteSpace=wrap;html=1;" vertex="1" parent="qecnjgu84kB3Tcle1Ytw-28">
          <mxGeometry width="120" height="120" as="geometry" />
        </mxCell>
        <mxCell id="qecnjgu84kB3Tcle1Ytw-30" value="&lt;font size=&quot;3&quot;&gt;2&lt;/font&gt;" style="ellipse;whiteSpace=wrap;html=1;aspect=fixed;" vertex="1" parent="qecnjgu84kB3Tcle1Ytw-28">
          <mxGeometry x="40" width="40" height="40" as="geometry" />
        </mxCell>
        <mxCell id="YPtqcZmcez5NZQBm-YiC-1" value="" style="group" vertex="1" connectable="0" parent="1">
          <mxGeometry x="750" y="250" width="160" height="100" as="geometry" />
        </mxCell>
        <mxCell id="YPtqcZmcez5NZQBm-YiC-2" value="&lt;font style=&quot;font-size: 18px;&quot;&gt;150-я стрелковая дивизия&lt;/font&gt;" style="rounded=0;whiteSpace=wrap;html=1;" vertex="1" parent="YPtqcZmcez5NZQBm-YiC-1">
          <mxGeometry width="160" height="100" as="geometry" />
        </mxCell>
        <mxCell id="YPtqcZmcez5NZQBm-YiC-3" value="&lt;font size=&quot;3&quot;&gt;1&lt;/font&gt;" style="rounded=0;whiteSpace=wrap;html=1;" vertex="1" parent="YPtqcZmcez5NZQBm-YiC-1">
          <mxGeometry x="60" width="40" height="30" as="geometry" />
        </mxCell>
        <mxCell id="YPtqcZmcez5NZQBm-YiC-4" value="" style="group" vertex="1" connectable="0" parent="1">
          <mxGeometry x="750" y="420" width="160" height="100" as="geometry" />
        </mxCell>
        <mxCell id="YPtqcZmcez5NZQBm-YiC-5" value="&lt;font style=&quot;font-size: 18px;&quot;&gt;6-я гвардейская армия&lt;/font&gt;" style="rounded=0;whiteSpace=wrap;html=1;" vertex="1" parent="YPtqcZmcez5NZQBm-YiC-4">
          <mxGeometry width="160" height="100" as="geometry" />
        </mxCell>
        <mxCell id="YPtqcZmcez5NZQBm-YiC-6" value="&lt;font size=&quot;3&quot;&gt;2&lt;/font&gt;" style="rounded=0;whiteSpace=wrap;html=1;" vertex="1" parent="YPtqcZmcez5NZQBm-YiC-4">
          <mxGeometry x="60" width="40" height="30" as="geometry" />
        </mxCell>
        <mxCell id="YPtqcZmcez5NZQBm-YiC-7" value="" style="group" vertex="1" connectable="0" parent="1">
          <mxGeometry x="760" y="100" width="160" height="100" as="geometry" />
        </mxCell>
        <mxCell id="YPtqcZmcez5NZQBm-YiC-8" value="&lt;font style=&quot;font-size: 18px;&quot;&gt;8-я гвардейская армия&lt;/font&gt;" style="rounded=0;whiteSpace=wrap;html=1;" vertex="1" parent="YPtqcZmcez5NZQBm-YiC-7">
          <mxGeometry width="160" height="100" as="geometry" />
        </mxCell>
        <mxCell id="YPtqcZmcez5NZQBm-YiC-9" value="&lt;font size=&quot;3&quot;&gt;7&lt;/font&gt;" style="rounded=0;whiteSpace=wrap;html=1;" vertex="1" parent="YPtqcZmcez5NZQBm-YiC-7">
          <mxGeometry x="60" width="40" height="30" as="geometry" />
        </mxCell>
        <mxCell id="YPtqcZmcez5NZQBm-YiC-10" value="" style="group;spacingTop=0;spacing=2;" vertex="1" connectable="0" parent="1">
          <mxGeometry x="280" y="420" width="160" height="100" as="geometry" />
        </mxCell>
        <mxCell id="YPtqcZmcez5NZQBm-YiC-11" value="&lt;font style=&quot;font-size: 18px;&quot;&gt;3-й гвардейский корпус&lt;/font&gt;" style="rounded=0;whiteSpace=wrap;html=1;" vertex="1" parent="YPtqcZmcez5NZQBm-YiC-10">
          <mxGeometry width="160" height="100" as="geometry" />
        </mxCell>
        <mxCell id="YPtqcZmcez5NZQBm-YiC-12" value="&lt;font size=&quot;3&quot;&gt;6&lt;/font&gt;" style="rounded=0;whiteSpace=wrap;html=1;" vertex="1" parent="YPtqcZmcez5NZQBm-YiC-10">
          <mxGeometry x="60" width="40" height="30" as="geometry" />
        </mxCell>
        <mxCell id="YPtqcZmcez5NZQBm-YiC-13" value="" style="group" vertex="1" connectable="0" parent="1">
          <mxGeometry x="520" y="470" width="160" height="100" as="geometry" />
        </mxCell>
        <mxCell id="YPtqcZmcez5NZQBm-YiC-14" value="&lt;font style=&quot;font-size: 18px;&quot;&gt;316-я стрелковая дивизия&lt;/font&gt;" style="rounded=0;whiteSpace=wrap;html=1;" vertex="1" parent="YPtqcZmcez5NZQBm-YiC-13">
          <mxGeometry width="160" height="100" as="geometry" />
        </mxCell>
        <mxCell id="YPtqcZmcez5NZQBm-YiC-15" value="&lt;font size=&quot;3&quot;&gt;3&lt;/font&gt;" style="rounded=0;whiteSpace=wrap;html=1;" vertex="1" parent="YPtqcZmcez5NZQBm-YiC-13">
          <mxGeometry x="60" width="40" height="30" as="geometry" />
        </mxCell>
        <mxCell id="YPtqcZmcez5NZQBm-YiC-16" value="" style="group" vertex="1" connectable="0" parent="1">
          <mxGeometry x="250" y="90" width="160" height="100" as="geometry" />
        </mxCell>
        <mxCell id="YPtqcZmcez5NZQBm-YiC-17" value="&lt;font style=&quot;font-size: 18px;&quot;&gt;5-я гвардейская армия&lt;/font&gt;" style="rounded=0;whiteSpace=wrap;html=1;" vertex="1" parent="YPtqcZmcez5NZQBm-YiC-16">
          <mxGeometry width="160" height="100" as="geometry" />
        </mxCell>
        <mxCell id="YPtqcZmcez5NZQBm-YiC-18" value="&lt;font size=&quot;3&quot;&gt;9&lt;/font&gt;" style="rounded=0;whiteSpace=wrap;html=1;" vertex="1" parent="YPtqcZmcez5NZQBm-YiC-16">
          <mxGeometry x="60" width="40" height="30" as="geometry" />
        </mxCell>
        <mxCell id="YPtqcZmcez5NZQBm-YiC-19" value="" style="group" vertex="1" connectable="0" parent="1">
          <mxGeometry x="270" y="250" width="160" height="100" as="geometry" />
        </mxCell>
        <mxCell id="YPtqcZmcez5NZQBm-YiC-20" value="&lt;font style=&quot;font-size: 18px;&quot;&gt;4-я ударная армия&lt;/font&gt;" style="rounded=0;whiteSpace=wrap;html=1;" vertex="1" parent="YPtqcZmcez5NZQBm-YiC-19">
          <mxGeometry width="160" height="100" as="geometry" />
        </mxCell>
        <mxCell id="YPtqcZmcez5NZQBm-YiC-21" value="&lt;font size=&quot;3&quot;&gt;8&lt;/font&gt;" style="rounded=0;whiteSpace=wrap;html=1;" vertex="1" parent="YPtqcZmcez5NZQBm-YiC-19">
          <mxGeometry x="60" width="40" height="30" as="geometry" />
        </mxCell>
        <mxCell id="YPtqcZmcez5NZQBm-YiC-22" value="" style="group" vertex="1" connectable="0" parent="1">
          <mxGeometry x="280" y="620" width="160" height="100" as="geometry" />
        </mxCell>
        <mxCell id="YPtqcZmcez5NZQBm-YiC-23" value="&lt;font style=&quot;font-size: 18px;&quot;&gt;1-я воздушная армия&lt;/font&gt;" style="rounded=0;whiteSpace=wrap;html=1;" vertex="1" parent="YPtqcZmcez5NZQBm-YiC-22">
          <mxGeometry width="160" height="100" as="geometry" />
        </mxCell>
        <mxCell id="YPtqcZmcez5NZQBm-YiC-24" value="&lt;font size=&quot;3&quot;&gt;4&lt;/font&gt;" style="rounded=0;whiteSpace=wrap;html=1;" vertex="1" parent="YPtqcZmcez5NZQBm-YiC-22">
          <mxGeometry x="60" width="40" height="30" as="geometry" />
        </mxCell>
        <mxCell id="YPtqcZmcez5NZQBm-YiC-25" value="" style="group" vertex="1" connectable="0" parent="1">
          <mxGeometry x="750" y="620" width="160" height="100" as="geometry" />
        </mxCell>
        <mxCell id="YPtqcZmcez5NZQBm-YiC-26" value="&lt;font style=&quot;font-size: 18px;&quot;&gt;62-я армия&lt;/font&gt;" style="rounded=0;whiteSpace=wrap;html=1;align=center;" vertex="1" parent="YPtqcZmcez5NZQBm-YiC-25">
          <mxGeometry width="160" height="100" as="geometry" />
        </mxCell>
        <mxCell id="YPtqcZmcez5NZQBm-YiC-27" value="&lt;font size=&quot;3&quot;&gt;5&lt;/font&gt;" style="rounded=0;whiteSpace=wrap;html=1;" vertex="1" parent="YPtqcZmcez5NZQBm-YiC-25">
          <mxGeometry x="60" width="40" height="30" as="geometry" />
        </mxCell>
        <mxCell id="YPtqcZmcez5NZQBm-YiC-28" value="" style="group" vertex="1" connectable="0" parent="1">
          <mxGeometry x="505" y="270" width="160" height="100" as="geometry" />
        </mxCell>
        <mxCell id="YPtqcZmcez5NZQBm-YiC-29" value="&lt;font style=&quot;font-size: 18px;&quot;&gt;2-я гвардейская армия&lt;/font&gt;" style="rounded=0;whiteSpace=wrap;html=1;" vertex="1" parent="YPtqcZmcez5NZQBm-YiC-28">
          <mxGeometry width="160" height="100" as="geometry" />
        </mxCell>
        <mxCell id="YPtqcZmcez5NZQBm-YiC-30" value="&lt;font size=&quot;3&quot;&gt;10&lt;/font&gt;" style="rounded=0;whiteSpace=wrap;html=1;" vertex="1" parent="YPtqcZmcez5NZQBm-YiC-28">
          <mxGeometry x="60" width="40" height="30" as="geometry" />
        </mxCell>
        <mxCell id="YPtqcZmcez5NZQBm-YiC-32" style="edgeStyle=orthogonalEdgeStyle;rounded=0;orthogonalLoop=1;jettySize=auto;html=1;entryX=1;entryY=0.5;entryDx=0;entryDy=0;" edge="1" parent="1" source="qecnjgu84kB3Tcle1Ytw-26" target="YPtqcZmcez5NZQBm-YiC-8">
          <mxGeometry relative="1" as="geometry" />
        </mxCell>
        <mxCell id="YPtqcZmcez5NZQBm-YiC-33" style="edgeStyle=orthogonalEdgeStyle;rounded=0;orthogonalLoop=1;jettySize=auto;html=1;entryX=1;entryY=0.5;entryDx=0;entryDy=0;" edge="1" parent="1" source="qecnjgu84kB3Tcle1Ytw-29" target="YPtqcZmcez5NZQBm-YiC-2">
          <mxGeometry relative="1" as="geometry" />
        </mxCell>
        <mxCell id="YPtqcZmcez5NZQBm-YiC-34" style="edgeStyle=orthogonalEdgeStyle;rounded=0;orthogonalLoop=1;jettySize=auto;html=1;entryX=0.5;entryY=1;entryDx=0;entryDy=0;" edge="1" parent="1" source="qecnjgu84kB3Tcle1Ytw-17" target="YPtqcZmcez5NZQBm-YiC-5">
          <mxGeometry relative="1" as="geometry" />
        </mxCell>
        <mxCell id="YPtqcZmcez5NZQBm-YiC-35" style="edgeStyle=orthogonalEdgeStyle;rounded=0;orthogonalLoop=1;jettySize=auto;html=1;entryX=1;entryY=0.5;entryDx=0;entryDy=0;" edge="1" parent="1" source="qecnjgu84kB3Tcle1Ytw-23" target="YPtqcZmcez5NZQBm-YiC-26">
          <mxGeometry relative="1" as="geometry" />
        </mxCell>
        <mxCell id="YPtqcZmcez5NZQBm-YiC-36" style="edgeStyle=orthogonalEdgeStyle;rounded=0;orthogonalLoop=1;jettySize=auto;html=1;entryX=0.5;entryY=1;entryDx=0;entryDy=0;" edge="1" parent="1" source="qecnjgu84kB3Tcle1Ytw-6" target="YPtqcZmcez5NZQBm-YiC-14">
          <mxGeometry relative="1" as="geometry" />
        </mxCell>
        <mxCell id="YPtqcZmcez5NZQBm-YiC-38" style="edgeStyle=orthogonalEdgeStyle;rounded=0;orthogonalLoop=1;jettySize=auto;html=1;entryX=0;entryY=0.5;entryDx=0;entryDy=0;" edge="1" parent="1" source="qecnjgu84kB3Tcle1Ytw-11" target="YPtqcZmcez5NZQBm-YiC-23">
          <mxGeometry relative="1" as="geometry" />
        </mxCell>
        <mxCell id="YPtqcZmcez5NZQBm-YiC-39" style="edgeStyle=orthogonalEdgeStyle;rounded=0;orthogonalLoop=1;jettySize=auto;html=1;entryX=0;entryY=0.5;entryDx=0;entryDy=0;" edge="1" parent="1" source="qecnjgu84kB3Tcle1Ytw-2" target="YPtqcZmcez5NZQBm-YiC-11">
          <mxGeometry relative="1" as="geometry" />
        </mxCell>
        <mxCell id="YPtqcZmcez5NZQBm-YiC-40" style="edgeStyle=orthogonalEdgeStyle;rounded=0;orthogonalLoop=1;jettySize=auto;html=1;entryX=0;entryY=0.5;entryDx=0;entryDy=0;" edge="1" parent="1" source="qecnjgu84kB3Tcle1Ytw-14" target="YPtqcZmcez5NZQBm-YiC-20">
          <mxGeometry relative="1" as="geometry" />
        </mxCell>
        <mxCell id="YPtqcZmcez5NZQBm-YiC-41" style="edgeStyle=orthogonalEdgeStyle;rounded=0;orthogonalLoop=1;jettySize=auto;html=1;entryX=0;entryY=0.5;entryDx=0;entryDy=0;" edge="1" parent="1" source="qecnjgu84kB3Tcle1Ytw-8" target="YPtqcZmcez5NZQBm-YiC-17">
          <mxGeometry relative="1" as="geometry" />
        </mxCell>
        <mxCell id="YPtqcZmcez5NZQBm-YiC-42" style="edgeStyle=orthogonalEdgeStyle;rounded=0;orthogonalLoop=1;jettySize=auto;html=1;entryX=0.5;entryY=0;entryDx=0;entryDy=0;" edge="1" parent="1" source="qecnjgu84kB3Tcle1Ytw-20" target="YPtqcZmcez5NZQBm-YiC-30">
          <mxGeometry relative="1" as="geometry" />
        </mxCell>
      </root>
    </mxGraphModel>
  </diagram>
</mxfile>
